<svg version="1.1" id="Layer_1" xmlns="http://www.w3.org/2000/svg" xmlns:xlink="http://www.w3.org/1999/xlink" x="0px" y="0px"
	 width="100%" viewBox="0 0 640 720" enable-background="new 0 0 640 720" xml:space="preserve">
<path fill="#000000" opacity="1.000000" stroke="none" 
	d="
M277.823181,430.148926 
	C266.760193,417.061035 255.929993,404.237823 245.023529,391.479736 
	C242.530121,388.563049 241.430023,385.572815 241.562759,381.534637 
	C241.824875,373.561096 241.201492,365.560028 241.008041,357.568817 
	C240.956146,355.424957 240.227905,353.795563 238.542007,352.389893 
	C234.511139,349.029053 232.795639,344.956848 232.858871,339.380890 
	C233.136688,314.890045 232.861542,290.393280 232.846817,265.898590 
	C232.841644,257.281586 233.055450,257.575745 240.836700,253.989716 
	C249.923767,249.801895 259.420105,246.756241 268.734741,243.215622 
	C282.879852,237.838959 297.170807,232.847183 311.351929,227.563400 
	C315.132599,226.154739 318.604797,222.621323 322.889069,224.852280 
	C326.175293,226.563522 329.554657,227.803040 333.002594,229.015213 
	C355.853546,237.048828 378.451508,245.803421 401.576355,253.056519 
	C405.873596,254.404358 408.210541,256.429504 408.130920,261.851105 
	C407.859467,280.331055 408.277985,298.824585 408.643494,317.308746 
	C408.781219,324.274445 409.490326,331.228912 409.944702,338.188141 
	C410.126892,340.978607 409.388092,343.478760 407.481201,345.541595 
	C404.662140,348.591187 402.561249,352.194153 399.514679,355.110809 
	C395.615295,358.844055 398.648010,363.982758 397.585815,368.371521 
	C397.369598,369.264740 397.859711,370.327911 398.020050,371.313416 
	C399.603180,381.044159 397.121429,388.761169 390.149719,396.552216 
	C374.745392,413.766968 360.671844,432.174316 346.119537,450.147034 
	C344.603088,452.019928 342.922516,453.276154 340.516479,453.950256 
	C342.517120,438.649109 344.259064,423.730560 345.825470,408.783264 
	C347.263458,395.061707 349.248840,381.419617 350.102905,367.611298 
	C350.441559,362.136047 351.439880,356.455627 352.537659,350.925201 
	C352.958771,348.803619 353.983398,347.775543 355.760529,346.957703 
	C362.408600,343.898285 368.964783,340.630920 375.678253,337.725403 
	C378.920227,336.322388 380.220490,334.296478 380.011292,330.803467 
	C379.113739,315.818268 381.068512,316.971344 367.478271,322.924133 
	C359.708954,326.327271 352.123901,330.150757 344.357574,333.561218 
	C341.135040,334.976349 341.081207,337.428406 341.365753,340.164795 
	C342.088287,347.112946 342.625305,354.094421 343.725189,360.984528 
	C344.500824,365.843231 343.948395,369.515900 339.662598,372.789795 
	C334.397430,376.811859 329.703613,381.594910 324.866180,386.158569 
	C322.279449,388.598938 319.972900,388.959930 317.010773,386.605530 
	C310.759491,381.636841 304.354126,376.856384 297.903717,372.146912 
	C295.899017,370.683228 295.355530,369.044983 295.410980,366.636658 
	C295.606354,358.154785 295.448730,349.665070 295.619629,341.182220 
	C295.710938,336.650391 294.045441,333.815552 289.635162,332.109619 
	C281.424774,328.933777 273.365265,325.361603 265.287720,321.851349 
	C261.470886,320.192688 259.985626,321.537537 260.146851,325.415863 
	C260.475067,333.312042 261.788452,339.681244 271.061798,343.009155 
	C285.536926,348.203796 284.989197,348.994293 287.297485,365.873627 
	C290.495758,389.261169 294.152863,412.586060 297.634613,435.934631 
	C298.479584,441.600983 299.406891,447.255066 300.296356,452.914795 
	C299.759552,453.243256 299.222778,453.571747 298.686005,453.900238 
	C291.800110,446.079224 284.914215,438.258240 277.823181,430.148926 
z"/>
<path fill="#000000" opacity="1.000000" stroke="none" 
	d="
M290.602356,208.329605 
	C305.372528,206.356430 319.595886,202.713150 334.461060,205.700043 
	C330.423004,201.339020 326.083710,198.144745 320.898163,196.381744 
	C317.895111,195.360733 315.486908,197.478195 313.000854,198.745621 
	C299.966553,205.390793 302.085938,207.474625 298.666687,192.010071 
	C294.686218,174.007263 290.799164,155.983780 286.866455,137.970398 
	C285.165222,130.178345 283.412262,122.397232 281.778503,114.591133 
	C281.482697,113.177826 281.172455,111.622803 282.543060,109.634796 
	C286.093781,109.805405 290.035858,109.909973 293.963470,110.206673 
	C298.142395,110.522369 300.059692,108.973206 300.044037,104.527596 
	C300.020508,97.855255 300.232758,97.854828 306.343597,100.255608 
	C306.653198,100.377243 306.991455,100.444000 307.277405,100.605301 
	C316.062988,105.560760 324.595062,105.017960 332.958679,99.528244 
	C333.903534,98.908066 335.094574,98.644547 336.197235,98.297646 
	C336.440033,98.221260 336.792694,98.494080 337.093323,98.609917 
	C338.822540,109.940033 338.823883,110.080894 350.418549,109.971519 
	C354.913391,109.929131 355.636963,111.372238 354.760803,115.646248 
	C349.394836,141.822525 344.293793,168.053391 339.198425,194.284332 
	C338.725983,196.716354 337.988312,199.076721 337.566467,201.539093 
	C336.801941,206.002213 338.929077,207.649429 342.588806,207.438843 
	C352.025391,206.895874 358.205688,212.241776 364.383392,218.251999 
	C370.452118,224.156235 377.045898,229.518082 383.328796,235.206848 
	C384.829712,236.565872 386.945435,237.697403 386.643768,240.480499 
	C383.811310,241.647964 381.402130,239.848068 379.022217,239.203201 
	C374.712372,238.035431 370.997986,235.602020 366.043427,235.493607 
	C363.856171,235.445740 360.616180,232.132706 357.305328,231.020020 
	C348.870361,228.185257 340.453674,225.236282 332.242157,221.822006 
	C328.206421,220.143982 323.418091,221.440689 319.735138,217.988251 
	C318.899628,217.205032 315.394806,218.823013 313.367279,219.834259 
	C304.175690,224.418625 294.255554,227.114151 284.823212,231.062408 
	C275.173981,235.101440 265.506348,239.096725 255.832260,243.075897 
	C254.470505,243.636032 253.014801,244.314514 251.556015,242.830597 
	C251.071030,240.508423 253.008194,239.329849 254.336456,238.052673 
	C263.447632,229.291977 272.743225,220.721313 281.768066,211.873840 
	C284.245880,209.444717 286.872131,208.355606 290.602356,208.329605 
z"/>
<path fill="#000000" opacity="1.000000" stroke="none" 
	d="
M392.000061,472.679443 
	C402.497375,472.678802 412.511108,473.046997 422.488525,472.601532 
	C443.455109,471.665527 457.105865,482.130280 464.944977,500.394745 
	C476.525879,527.377258 462.893219,555.195251 432.081421,561.249084 
	C427.326263,562.183289 422.525635,562.422852 417.678406,562.440063 
	C395.196930,562.519897 372.716675,563.179504 350.233765,562.520630 
	C349.235840,562.491394 348.223999,562.676331 347.289459,561.451294 
	C347.651886,558.708252 350.038940,557.092957 352.018646,555.652283 
	C364.129517,546.839111 369.064178,535.388611 366.835815,520.382935 
	C365.843048,513.697876 366.568024,506.743225 366.681915,499.913757 
	C366.750153,495.821594 365.440826,492.633209 362.366516,489.772400 
	C357.061737,484.836151 352.110931,479.519531 347.011627,474.362518 
	C347.172516,473.801575 347.333374,473.240631 347.494263,472.679688 
	C362.162872,472.679688 376.831451,472.679688 392.000061,472.679443 
M397.132538,507.502197 
	C397.120239,517.825623 397.218262,528.150879 397.038788,538.471436 
	C396.971344,542.350220 398.391052,543.937134 402.286163,543.759094 
	C406.773163,543.554016 411.283844,543.850098 415.768951,543.624329 
	C426.511292,543.083557 431.474823,539.269836 433.195953,529.364197 
	C434.535278,521.655823 434.617920,513.780212 432.695679,506.080750 
	C430.686279,498.032227 425.709259,492.529297 417.724060,490.124756 
	C411.885040,488.366516 405.831909,489.326935 399.873444,489.465759 
	C397.476837,489.521606 397.181213,491.587555 397.167053,493.516479 
	C397.135284,497.845337 397.141724,502.174500 397.132538,507.502197 
z"/>
<path fill="#000000" opacity="1.000000" stroke="none" 
	d="
M264.866028,525.235596 
	C270.053314,524.319763 274.828003,524.609009 279.336700,524.762512 
	C280.709167,526.902466 279.587189,528.381470 279.113251,529.917236 
	C276.304474,539.017761 281.055420,546.423340 290.447632,547.615723 
	C294.813446,548.169983 299.115784,547.649292 303.333466,546.658264 
	C308.102386,545.537720 311.202454,540.492859 311.050903,534.618713 
	C310.900452,528.786377 308.246613,525.414978 302.800201,524.359131 
	C299.208221,523.662781 295.585541,523.026550 291.899170,523.378174 
	C289.356293,523.620789 288.410217,522.719177 288.358765,520.014038 
	C288.173767,510.288879 288.071350,510.290833 297.529480,509.187714 
	C298.191193,509.110535 298.851990,509.023926 299.514923,508.959167 
	C307.163757,508.212097 309.034790,506.915039 309.686249,501.900940 
	C310.726929,493.890839 308.216461,489.106903 301.533569,486.788605 
	C296.796631,485.145416 292.000885,485.472717 287.412262,487.347198 
	C281.522522,489.753143 279.704498,493.229614 280.104736,500.557709 
	C280.465271,507.158569 280.451782,507.173096 273.844025,507.332123 
	C264.407715,507.559174 256.574860,502.112335 256.046631,494.084595 
	C255.537109,486.340790 259.137604,480.250000 265.994324,476.393158 
	C279.224487,468.951294 293.423462,467.992798 308.109863,470.189728 
	C316.977631,471.516235 325.335205,473.950592 332.224884,480.055817 
	C344.960358,491.341125 342.905731,507.038849 327.717743,514.595215 
	C326.288879,515.306091 324.491058,515.368591 323.282043,517.137878 
	C326.863037,519.001160 330.794342,519.790649 334.173248,521.936890 
	C345.362000,529.043579 347.086273,542.787598 337.731659,552.212341 
	C330.221863,559.778503 320.649231,563.086182 310.447906,564.501953 
	C294.681610,566.690186 279.233124,565.784119 264.806458,558.046936 
	C260.441437,555.705933 256.762634,552.561279 254.563446,548.128662 
	C249.872665,538.674011 253.744949,529.978882 264.866028,525.235596 
z"/>
<path fill="#000000" opacity="1.000000" stroke="none" 
	d="
M204.994598,562.515991 
	C196.106323,562.515503 187.655365,562.515503 179.262085,562.515503 
	C178.369186,559.790771 180.369629,558.878113 181.537674,557.689392 
	C185.973038,553.175354 190.480392,548.730103 195.033676,544.334656 
	C197.573090,541.883240 198.746399,539.156006 198.669006,535.478821 
	C198.434174,524.318054 198.474075,513.148499 198.597031,501.984497 
	C198.657639,496.482117 196.882233,492.121124 192.716766,488.365417 
	C187.728851,483.868256 183.185379,478.878174 177.437180,473.080627 
	C201.627853,473.080627 224.154480,473.080627 246.656052,473.080627 
	C247.460190,474.846588 246.083313,475.601074 245.224609,476.496521 
	C243.034485,478.780334 241.040924,481.377228 238.491180,483.169525 
	C228.669739,490.073517 226.087082,499.501587 227.264282,510.967865 
	C228.009232,518.224060 227.506836,525.620728 227.371735,532.950806 
	C227.274521,538.225830 228.639694,542.572632 232.831528,546.215149 
	C237.214539,550.023804 241.059036,554.452271 245.136642,558.612061 
	C245.936813,559.428345 246.944199,560.146118 246.370468,562.516418 
	C232.887573,562.516418 219.159744,562.516418 204.994598,562.515991 
z"/>
</svg>