<?xml version="1.0" encoding="utf-8"?>
<!-- Generator: Adobe Illustrator 21.1.0, SVG Export Plug-In . SVG Version: 6.00 Build 0)  -->
<svg version="1.1" id="Layer_1" xmlns="http://www.w3.org/2000/svg" xmlns:xlink="http://www.w3.org/1999/xlink" x="0px" y="0px"
	 viewBox="207 52 198 376" xml:space="preserve" fill="#1abc9c">
<path d="M262.4,394c-11.1-13.1-21.9-25.9-32.8-38.7c-2.5-2.9-3.6-5.9-3.5-9.9c0.3-8-0.4-16-0.6-24c-0.1-2.1-0.8-3.8-2.5-5.2
	c-4-3.4-5.7-7.4-5.7-13c0.3-24.5,0-49,0-73.5c0-8.6,0.2-8.3,8-11.9c9.1-4.2,18.6-7.2,27.9-10.8c14.1-5.4,28.4-10.4,42.6-15.7
	c3.8-1.4,7.3-4.9,11.5-2.7c3.3,1.7,6.7,3,10.1,4.2c22.9,8,45.4,16.8,68.6,24c4.3,1.3,6.6,3.4,6.6,8.8c-0.3,18.5,0.1,37,0.5,55.5
	c0.1,7,0.8,13.9,1.3,20.9c0.2,2.8-0.6,5.3-2.5,7.4c-2.8,3-4.9,6.7-8,9.6c-3.9,3.7-0.9,8.9-1.9,13.3c-0.2,0.9,0.3,2,0.4,2.9
	c1.6,9.7-0.9,17.4-7.9,25.2c-15.4,17.2-29.5,35.6-44,53.6c-1.5,1.9-3.2,3.1-5.6,3.8c2-15.3,3.7-30.2,5.3-45.2
	c1.4-13.7,3.4-27.4,4.3-41.2c0.3-5.5,1.3-11.2,2.4-16.7c0.4-2.1,1.4-3.1,3.2-4c6.6-3.1,13.2-6.3,19.9-9.2c3.2-1.4,4.5-3.4,4.3-6.9
	c-0.9-15,1.1-13.8-12.5-7.9c-7.8,3.4-15.4,7.2-23.1,10.6c-3.2,1.4-3.3,3.9-3,6.6c0.7,6.9,1.3,13.9,2.4,20.8
	c0.8,4.9,0.2,8.5-4.1,11.8c-5.3,4-10,8.8-14.8,13.4c-2.6,2.4-4.9,2.8-7.9,0.4c-6.3-5-12.7-9.7-19.1-14.5c-2-1.5-2.5-3.1-2.5-5.5
	c0.2-8.5,0-17,0.2-25.5c0.1-4.5-1.6-7.4-6-9.1c-8.2-3.2-16.3-6.7-24.3-10.3c-3.8-1.7-5.3-0.3-5.1,3.6c0.3,7.9,1.6,14.3,10.9,17.6
	c14.5,5.2,13.9,6,16.2,22.9c3.2,23.4,6.9,46.7,10.3,70.1c0.8,5.7,1.8,11.3,2.7,17c-0.5,0.3-1.1,0.7-1.6,1
	C276.4,410,269.5,402.1,262.4,394z"/>
<path d="M275.2,172.2c14.8-2,29-5.6,43.9-2.6c-4-4.4-8.4-7.6-13.6-9.3c-3-1-5.4,1.1-7.9,2.4c-13,6.6-10.9,8.7-14.3-6.7
	c-4-18-7.9-36-11.8-54c-1.7-7.8-3.5-15.6-5.1-23.4c-0.3-1.4-0.6-3,0.8-5c3.6,0.2,7.5,0.3,11.4,0.6c4.2,0.3,6.1-1.2,6.1-5.7
	c0-6.7,0.2-6.7,6.3-4.3c0.3,0.1,0.6,0.2,0.9,0.3c8.8,5,17.3,4.4,25.7-1.1c0.9-0.6,2.1-0.9,3.2-1.2c0.2-0.1,0.6,0.2,0.9,0.3
	c1.7,11.3,1.7,11.5,13.3,11.4c4.5,0,5.2,1.4,4.3,5.7c-5.4,26.2-10.5,52.4-15.6,78.6c-0.5,2.4-1.2,4.8-1.6,7.3
	c-0.8,4.5,1.4,6.1,5,5.9c9.4-0.5,15.6,4.8,21.8,10.8c6.1,5.9,12.7,11.3,18.9,17c1.5,1.4,3.6,2.5,3.3,5.3c-2.8,1.2-5.2-0.6-7.6-1.3
	c-4.3-1.2-8-3.6-13-3.7c-2.2,0-5.4-3.4-8.7-4.5c-8.4-2.8-16.9-5.8-25.1-9.2c-4-1.7-8.8-0.4-12.5-3.8c-0.8-0.8-4.3,0.8-6.4,1.8
	c-9.2,4.6-19.1,7.3-28.5,11.2c-9.6,4-19.3,8-29,12c-1.4,0.6-2.8,1.2-4.3-0.2c-0.5-2.3,1.5-3.5,2.8-4.8c9.1-8.8,18.4-17.3,27.4-26.2
	C268.8,173.3,271.5,172.2,275.2,172.2z"/>
</svg>
