<?xml version="1.0" encoding="UTF-8"?>
<svg version="1.1" xmlns="http://www.w3.org/2000/svg" width="641" height="720">
<path d="M0 0 C211.53 0 423.06 0 641 0 C641 237.6 641 475.2 641 720 C429.47 720 217.94 720 0 720 C0 482.4 0 244.8 0 0 Z " fill="#EFECDB" transform="translate(0,0)"/>
<path d="M0 0 C2.75207825 0.93298009 5.47129014 1.93468096 8.19140625 2.95703125 C10.69600953 3.88711341 13.20813623 4.74128247 15.75 5.5625 C19.60379413 6.82659914 23.27141945 8.40203691 27 10 C29.10097446 10.73555243 31.21415111 11.42407127 33.33203125 12.109375 C37.84364869 13.61544934 42.30024245 15.27675556 46.765625 16.9140625 C49.5212366 17.83925577 52.13973587 18.51612073 55 19 C55 19.66 55 20.32 55 21 C56.09634766 20.94585937 56.09634766 20.94585937 57.21484375 20.890625 C60.13576087 21.00533142 61.90478598 21.58078571 64.5625 22.75 C69.46931727 24.83078567 74.44503573 26.48414774 79.53125 28.0703125 C82 29 82 29 84 31 C84.31643677 33.52888489 84.31643677 33.52888489 84.41064453 36.76879883 C84.47048019 38.58889214 84.47048019 38.58889214 84.53152466 40.445755 C84.56557281 41.78283985 84.59932722 43.11993219 84.6328125 44.45703125 C84.67404052 45.83878308 84.71603551 47.22051222 84.75875854 48.60221863 C84.84685033 51.5150326 84.92859142 54.42793065 85.00537109 57.34106445 C85.10213739 61.01008637 85.20960856 64.6786818 85.32129288 68.34727669 C85.71635088 81.35775921 86.07323124 94.36954036 86.1171875 107.38671875 C86.12227325 108.23563187 86.12735901 109.08454498 86.13259888 109.95918274 C86.1213136 116.2237034 85.36581663 118.63418337 81 123 C80.67 123.721875 80.34 124.44375 80 125.1875 C79.67 125.785625 79.34 126.38375 79 127 C77.68 127.33 76.36 127.66 75 128 C75 138.23 75 148.46 75 159 C74.34 159 73.68 159 73 159 C72.938125 159.886875 72.87625 160.77375 72.8125 161.6875 C71.98830404 165.04768351 71.18148698 166.18978001 68.66796875 168.4453125 C66.40891605 170.55094008 64.37804589 172.82994901 62.3125 175.125 C61.54550781 175.97320312 60.77851563 176.82140625 59.98828125 177.6953125 C57.88886569 180.03290001 57.88886569 180.03290001 56 183 C55.34 183 54.68 183 54 183 C53.731875 183.763125 53.46375 184.52625 53.1875 185.3125 C52.04865495 187.88988618 51.18583329 189.26954864 49 191 C48.34 191 47.68 191 47 191 C46.61521484 192.09248047 46.61521484 192.09248047 46.22265625 193.20703125 C44.94394912 196.12803955 43.44407519 198.22012466 41.4375 200.6875 C38.97527569 203.68776321 38.97527569 203.68776321 37 207 C36.34 207 35.68 207 35 207 C35 207.66 35 208.32 35 209 C34.34 209 33.68 209 33 209 C32.7525 209.55171875 32.505 210.1034375 32.25 210.671875 C30.75765526 213.45136707 28.96327477 215.7814707 27 218.25 C26.29875 219.14203125 25.5975 220.0340625 24.875 220.953125 C24.25625 221.62859375 23.6375 222.3040625 23 223 C22.34 223 21.68 223 21 223 C21 223.66 21 224.32 21 225 C20.34 225 19.68 225 19 225 C21.77868418 196.63925423 24.64743425 168.29907518 28 140 C28.37160873 136.84511261 28.74240652 133.69013 29.11328125 130.53515625 C29.28423762 129.08210987 29.45521525 127.62906599 29.6262207 126.17602539 C29.74956787 125.12793701 29.87291504 124.07984863 30 123 C30.598125 122.896875 31.19625 122.79375 31.8125 122.6875 C34.33382942 121.89508218 35.20109329 120.88721828 37 119 C39.7166138 117.4108874 42.58400635 116.13742191 45.4375 114.8125 C46.5831543 114.26045898 46.5831543 114.26045898 47.75195312 113.69726562 C48.49251953 113.34986328 49.23308594 113.00246094 49.99609375 112.64453125 C50.66825928 112.32846924 51.3404248 112.01240723 52.03295898 111.68676758 C54 111 54 111 58 111 C57.835 109.9275 57.67 108.855 57.5 107.75 C56.78839274 102.17741358 56.91588954 96.60736426 57 91 C47.73881858 94.62739052 38.73530464 98.39179045 30.08764648 103.33398438 C26.09826041 105.57578498 22.40442081 106.896093 18 108 C18.06058594 108.5983667 18.12117188 109.1967334 18.18359375 109.81323242 C20.11852927 129.18677431 20.11852927 129.18677431 20.4375 137.625 C20.49744141 139.06746094 20.49744141 139.06746094 20.55859375 140.5390625 C19.76996248 144.01345201 17.83839585 144.99694099 15 147 C14.67 147.66 14.34 148.32 14 149 C13.34 149 12.68 149 12 149 C12 149.66 12 150.32 12 151 C11.01 151 10.02 151 9 151 C8.67 151.99 8.34 152.98 8 154 C7.34 154 6.68 154 6 154 C5.67 154.99 5.34 155.98 5 157 C2.33862801 159.38122757 0.4032423 160.8655859 -3 162 C-4.6484375 160.890625 -4.6484375 160.890625 -6.375 159.25 C-9.07895718 156.70655169 -11.81489713 154.90148247 -15 153 C-16.75104559 151.67424585 -18.48030778 150.31926678 -20.1875 148.9375 C-21.04730469 148.24527344 -21.90710938 147.55304688 -22.79296875 146.83984375 C-25 145 -25 145 -27 143 C-27.17517747 140.27514272 -27.23149133 137.65340638 -27.1953125 134.9296875 C-27.1924826 134.13345978 -27.18965271 133.33723206 -27.18673706 132.51687622 C-27.1755264 129.96943237 -27.15042062 127.42233789 -27.125 124.875 C-27.11497133 123.14974465 -27.10584528 121.42448381 -27.09765625 119.69921875 C-27.07558422 115.46601086 -27.04104867 111.2330647 -27 107 C-27.92039062 106.86207031 -28.84078125 106.72414063 -29.7890625 106.58203125 C-34.95896129 105.64490848 -39.41844002 103.30818205 -44.0625 100.9375 C-47.3082972 99.29279662 -50.52066291 98.08729284 -54 97 C-56.6754193 96.02225586 -59.33659872 95.01025566 -62 94 C-62 93.34 -62 92.68 -62 92 C-62.66 92 -63.32 92 -64 92 C-63.9278125 92.67804688 -63.855625 93.35609375 -63.78125 94.0546875 C-63.14886291 100.39612473 -62.87561778 106.62886647 -63 113 C-61.7934375 113.37125 -61.7934375 113.37125 -60.5625 113.75 C-57.06677889 114.97656881 -53.72311303 116.32010192 -50.37890625 117.91015625 C-48.02032324 119.04503745 -48.02032324 119.04503745 -45.52734375 119.80859375 C-42.72545305 120.90657043 -41.13897895 121.86128051 -39 124 C-38.02661133 127.21972656 -38.02661133 127.21972656 -37.39453125 131.140625 C-37.27665756 131.84670898 -37.15878387 132.55279297 -37.03733826 133.28027344 C-36.67082042 135.5174839 -36.33194074 137.75741761 -36 140 C-35.89377319 140.70024292 -35.78754639 141.40048584 -35.67810059 142.12194824 C-35.04156727 146.34099308 -34.44485639 150.56479315 -33.86541748 154.79202271 C-32.36268077 165.74552901 -30.7772692 176.67013069 -28.875 187.5625 C-26.71592641 199.97798485 -25.3236015 212.47153235 -24 225 C-24.99 225 -25.98 225 -27 225 C-27 224.34 -27 223.68 -27 223 C-27.66 223 -28.32 223 -29 223 C-30.23328636 221.30006475 -31.46112843 219.59564156 -32.6484375 217.86328125 C-34.50802171 215.29963481 -36.73570693 213.20906641 -39 211 C-41.04886636 208.70696822 -43.02887879 206.35994511 -45 204 C-46.175625 202.6078125 -46.175625 202.6078125 -47.375 201.1875 C-49 199 -49 199 -49 197 C-49.66 197 -50.32 197 -51 197 C-52.01866229 195.34467377 -53.01810813 193.67739862 -54 192 C-54.66 191.67 -55.32 191.34 -56 191 C-56 190.34 -56 189.68 -56 189 C-56.66 189 -57.32 189 -58 189 C-61 185.53846154 -61 185.53846154 -61 183 C-61.66 183 -62.32 183 -63 183 C-67 177.58823529 -67 177.58823529 -67 175 C-67.556875 174.79375 -68.11375 174.5875 -68.6875 174.375 C-71.97012371 172.42316968 -73.70673246 170.05769006 -76 167 C-76 166.34 -76 165.68 -76 165 C-76.66 165 -77.32 165 -78 165 C-78 164.34 -78 163.68 -78 163 C-78.99 162.67 -79.98 162.34 -81 162 C-82.1802738 158.4591786 -82.0238386 155.37644627 -81.87890625 151.70703125 C-81.85529526 151.00100266 -81.83168427 150.29497406 -81.80735779 149.56755066 C-81.73087055 147.31565493 -81.64678253 145.06411613 -81.5625 142.8125 C-81.50926432 141.28452259 -81.45652401 139.75652784 -81.40429688 138.22851562 C-81.27527576 134.48545165 -81.13943788 130.74268981 -81 127 C-81.556875 126.79375 -82.11375 126.5875 -82.6875 126.375 C-85.88187528 124.47564172 -88.13647595 122.18766806 -90 119 C-90.66404592 116.07240492 -90.59817346 113.26259909 -90.50756836 110.27246094 C-90.50175751 109.41648315 -90.49594666 108.56050537 -90.48995972 107.67858887 C-90.46448831 104.86294938 -90.40279362 102.04940591 -90.33984375 99.234375 C-90.31313912 97.27478527 -90.28839207 95.31516797 -90.26551819 93.35552979 C-90.21247141 89.25645997 -90.14272427 85.1581431 -90.05981445 81.05957031 C-89.9537369 75.79812377 -89.87858666 70.53682372 -89.81447506 65.27471542 C-89.76368427 61.23237677 -89.70209506 57.19026542 -89.6366291 53.14813995 C-89.60546455 51.20722937 -89.57641211 49.26628371 -89.54948235 47.32530975 C-89.50924541 44.61988657 -89.4557931 41.91506296 -89.39819336 39.20996094 C-89.38317024 38.00058868 -89.38317024 38.00058868 -89.36784363 36.76678467 C-89.22920678 31.22920678 -89.22920678 31.22920678 -87 29 C-85.18579262 28.37857507 -83.34712154 27.82792154 -81.5 27.3125 C-75.94612819 25.66532082 -70.57501239 23.75181684 -65.1875 21.625 C-64.42252197 21.32319824 -63.65754395 21.02139648 -62.86938477 20.71044922 C-61.3261767 20.10082282 -59.78312541 19.49079941 -58.24023438 18.88037109 C-54.81748824 17.53529453 -51.38051165 16.22969942 -47.9375 14.9375 C-47.29458008 14.69620361 -46.65166016 14.45490723 -45.98925781 14.20629883 C-40.30321512 12.087149 -34.58238106 10.06857816 -28.84545898 8.09155273 C-24.47144684 6.57143044 -20.24546702 4.84915926 -16 3 C-14.56726542 2.44585142 -13.13067231 1.90136746 -11.6875 1.375 C-4.96387927 -1.13211282 -4.96387927 -1.13211282 0 0 Z " fill="#D9CB9C" transform="translate(322,225)"/>
<path d="M0 0 C10.110338 -0.0232584 20.22066955 -0.04098352 30.33102894 -0.05181217 C35.02660384 -0.05701162 39.72216031 -0.0640554 44.41772461 -0.07543945 C48.95647549 -0.08637339 53.49520874 -0.09229892 58.03397179 -0.09487724 C59.75814783 -0.09671267 61.48232301 -0.10029648 63.20649147 -0.10573006 C90.74947473 -0.1890096 90.74947473 -0.1890096 99 5 C101.25 7.5 101.25 7.5 103 10 C104.16402344 10.90298828 104.16402344 10.90298828 105.3515625 11.82421875 C112.96808481 18.0814502 118.41273594 27.28484928 120 37 C120.8608438 49.75742283 120.02182075 61.14737848 112.125 71.75 C101.82701065 83.24074179 90.05169707 88.03508283 74.77760124 89.16430283 C69.31074993 89.40214546 63.84529225 89.34622288 58.375 89.29296875 C56.64909234 89.28735516 54.92317982 89.28309344 53.19726562 89.28010559 C48.71254661 89.26879526 44.22813141 89.23945183 39.74353027 89.20599365 C35.14416612 89.17499015 30.54475161 89.16153638 25.9453125 89.14648438 C16.96341011 89.11456495 7.98173057 89.06354182 -1 89 C1.87285198 85.40661686 4.68008185 82.09895379 8.39233398 79.3515625 C14.15381124 74.90719904 18.08323284 70.87413066 19.11376953 63.44140625 C19.50293473 58.07119363 19.4227221 52.73552108 19.20043945 47.35888672 C19.0616052 43.9782113 19.01593697 40.60589528 18.98632812 37.22265625 C18.94543093 35.06499662 18.89939169 32.90742696 18.84765625 30.75 C18.82751968 29.74477295 18.80738312 28.7395459 18.78663635 27.70385742 C18.48579471 20.92497473 17.12086109 17.86815978 12.0703125 13.2265625 C11.42835938 12.69804687 10.78640625 12.16953125 10.125 11.625 C6.35466475 8.40538787 2.96900448 4.9811651 0 1 C0 0.67 0 0.34 0 0 Z " fill="#6F6968" transform="translate(347,472)"/>
<path d="M0 0 C1.32 0.433125 2.64 0.86625 4 1.3125 C4.82113281 1.58191406 5.64226562 1.85132812 6.48828125 2.12890625 C8.76767311 2.91942629 10.96412193 3.81678328 13.1875 4.75 C19.15791141 6.95085754 23.17028676 4.98428719 28.75 2.4375 C29.69359375 1.98246094 30.6371875 1.52742188 31.609375 1.05859375 C34 0 34 0 36 0 C35.67 3.96 35.34 7.92 35 12 C40.94 12 46.88 12 53 12 C53 16.67764521 52.98147239 19.96769351 52.08203125 24.34375 C51.8823877 25.32947998 51.68274414 26.31520996 51.47705078 27.33081055 C51.14809814 28.89955933 51.14809814 28.89955933 50.8125 30.5 C50.4719458 32.16639526 50.4719458 32.16639526 50.12451172 33.86645508 C48.87533542 39.93838426 47.56505292 45.99465528 46.21435547 52.04467773 C42.30017934 69.5968553 39.19099556 87.30498215 36 105 C35.01 105 34.02 105 33 105 C33 104.34 33 103.68 33 103 C32.29875 102.731875 31.5975 102.46375 30.875 102.1875 C27.8350176 100.9318551 24.9272226 99.49764877 22 98 C22 97.34 22 96.68 22 96 C17.46928735 96.53459736 14.30093954 97.6997312 10.375 100 C7.25096324 101.82016707 4.5701311 103.32955285 1 104 C-1.60856579 95.61928864 -3.63103786 87.25870226 -5.2902832 78.64453125 C-6.87312817 70.48315124 -8.64617143 62.36744252 -10.4375 54.25 C-12.64698756 44.21715604 -14.83394019 34.18074098 -16.9375 24.125 C-17.25448853 22.61921387 -17.25448853 22.61921387 -17.57788086 21.08300781 C-17.76745361 20.17131836 -17.95702637 19.25962891 -18.15234375 18.3203125 C-18.31726318 17.52898926 -18.48218262 16.73766602 -18.65209961 15.92236328 C-19 14 -19 14 -19 12 C-12.73 12 -6.46 12 0 12 C0 8.04 0 4.08 0 0 Z " fill="#F06866" transform="translate(300,98)"/>
<path d="M0 0 C0.92248535 0.0098291 1.8449707 0.0196582 2.79541016 0.02978516 C9.22760619 0.15123301 15.38697215 0.65499888 21.625 2.3125 C22.35332031 2.50328125 23.08164062 2.6940625 23.83203125 2.890625 C25.43838965 3.33419537 27.03375417 3.81744574 28.625 4.3125 C28.625 4.9725 28.625 5.6325 28.625 6.3125 C29.36492187 6.415625 30.10484375 6.51875 30.8671875 6.625 C35.54378003 7.7908361 38.51629439 10.72604959 41.625 14.3125 C44.83598941 20.06463666 45.61689662 26.84312981 44.625 33.3125 C41.50485102 39.55279797 37.33117779 42.86576689 30.8125 45.0625 C29.41982862 45.48961618 28.02495496 45.90989857 26.625 46.3125 C26.625 46.9725 26.625 47.6325 26.625 48.3125 C27.264375 48.395 27.90375 48.4775 28.5625 48.5625 C36.36788625 50.47402316 41.96851082 53.53880394 47.1484375 59.8125 C49.6268042 64.00867642 49.54305264 67.62109542 48.625 72.3125 C45.45132559 82.50166521 37.5106595 86.60691025 28.62890625 91.38671875 C12.88417518 98.66060035 -7.31173437 96.56485188 -23.375 91.3125 C-30.20614241 88.57087372 -35.86402905 84.42136155 -39.75 78.0625 C-40.95095407 72.77830209 -41.8738818 67.78873486 -38.94921875 62.95703125 C-36.14391852 59.65915154 -33.52661735 56.76844914 -29.375 55.3125 C-26.75073495 55.17291143 -24.24207253 55.12318631 -21.625 55.1875 C-20.92761719 55.19652344 -20.23023438 55.20554687 -19.51171875 55.21484375 C-17.79933042 55.23830112 -16.08711996 55.27416896 -14.375 55.3125 C-14.53871094 55.82296875 -14.70242188 56.3334375 -14.87109375 56.859375 C-15.54198481 60.12541828 -15.4683456 63.2311747 -15.4375 66.5625 C-15.42847656 67.82578125 -15.41945313 69.0890625 -15.41015625 70.390625 C-15.39855469 71.35484375 -15.38695312 72.3190625 -15.375 73.3125 C-14.055 73.9725 -12.735 74.6325 -11.375 75.3125 C-11.375 75.9725 -11.375 76.6325 -11.375 77.3125 C1.9110165 78.13860968 1.9110165 78.13860968 14.625 75.3125 C17.25640784 71.89166981 16.82710646 68.22624866 16.75 64.0625 C16.73195313 62.79921875 16.71390625 61.5359375 16.6953125 60.234375 C16.67210937 59.27015625 16.64890625 58.3059375 16.625 57.3125 C9.25345463 54.71941214 2.4246381 53.76596733 -5.375 53.3125 C-5.375 49.0225 -5.375 44.7325 -5.375 40.3125 C-3.71210938 40.27382813 -3.71210938 40.27382813 -2.015625 40.234375 C-0.55204453 40.17808344 0.91149562 40.12073633 2.375 40.0625 C3.10460937 40.04832031 3.83421875 40.03414063 4.5859375 40.01953125 C8.21904522 39.85438999 10.20949248 39.66826134 13.015625 37.265625 C13.54671875 36.62109375 14.0778125 35.9765625 14.625 35.3125 C15.285 35.3125 15.945 35.3125 16.625 35.3125 C16.64883493 27.2462038 16.64883493 27.2462038 13.3125 20.1875 C7.66532623 16.24761132 3.45838445 15.61864866 -3.375 16.3125 C-7.29942802 17.37749348 -10.88380151 18.99090201 -13.375 22.3125 C-14.37759507 25.32028521 -14.67814642 27.85070647 -14.9375 31 C-15.02128906 31.99386719 -15.10507812 32.98773438 -15.19140625 34.01171875 C-15.28228516 35.15060547 -15.28228516 35.15060547 -15.375 36.3125 C-22.08607198 36.64016536 -27.53749342 36.88648362 -33.375 33.3125 C-36.6227762 29.89817118 -37.68154866 27.04442944 -38 22.4375 C-37.81758866 17.42118815 -36.00776518 14.5303241 -32.8828125 10.7109375 C-31.375 9.3125 -31.375 9.3125 -29.375 9.3125 C-29.375 8.6525 -29.375 7.9925 -29.375 7.3125 C-27.8972978 6.70476026 -26.41773073 6.10155496 -24.9375 5.5 C-24.11378906 5.16355469 -23.29007812 4.82710938 -22.44140625 4.48046875 C-21.42949219 4.09503906 -20.41757812 3.70960938 -19.375 3.3125 C-18.71790039 3.05009521 -18.06080078 2.78769043 -17.38378906 2.51733398 C-11.49250981 0.32406361 -6.25443752 -0.1244721 0 0 Z " fill="#6F6A67" transform="translate(293.375,468.6875)"/>
<path d="M0 0 C22.11 0 44.22 0 67 0 C63.67258591 5.54569014 63.67258591 5.54569014 60.49829102 7.91479492 C53.2234739 13.82576132 48.32315624 18.91910102 47.10678101 28.48881531 C46.75345807 33.7807216 46.77922733 39.0136878 46.9375 44.3125 C46.95018921 45.95401535 46.95018921 45.95401535 46.96313477 47.62869263 C47.1532749 64.55701915 47.1532749 64.55701915 55.47094727 78.75268555 C58.59854907 81.45457845 61.75890647 83.84348075 65.34765625 85.89819336 C65.89292969 86.26178955 66.43820313 86.62538574 67 87 C67 87.66 67 88.32 67 89 C45.22 89 23.44 89 1 89 C1.33 87.68 1.66 86.36 2 85 C3.31647119 84.30062468 4.65022151 83.63270867 6 83 C6.33 82.01 6.66 81.02 7 80 C8.70703125 78.31640625 8.70703125 78.31640625 10.8125 76.5625 C12.21668206 75.3848839 13.61239222 74.19710133 15 73 C15.6815918 72.51789063 16.36318359 72.03578125 17.06542969 71.5390625 C20.101934 67.55374639 19.86236317 63.45416003 20.05859375 58.55859375 C20.10488419 57.52642227 20.15117462 56.49425079 20.1988678 55.43080139 C20.31945703 52.09931069 20.3881642 48.77077963 20.4375 45.4375 C20.458125 44.31762695 20.47875 43.19775391 20.5 42.04394531 C20.74565139 24.46648638 20.74565139 24.46648638 12.19555664 9.81665039 C8.86369492 6.95313841 5.51099296 4.34628969 1.74414062 2.08007812 C1.16857422 1.72365234 0.59300781 1.36722656 0 1 C0 0.67 0 0.34 0 0 Z " fill="#6F6968" transform="translate(178,472)"/>
<path d="M0 0 C24.0326087 0 24.0326087 0 30.78515625 5.4375 C37.34413181 12.14151434 39.36979778 20.86449948 39.4375 30 C39.30709978 37.23849088 39.0709678 44.97849455 34.5234375 50.93359375 C25.27436281 59.73921965 11.80868831 57 0 57 C0 38.19 0 19.38 0 0 Z " fill="#ECE9D9" transform="translate(395,487)"/>
<path d="M0 0 C3.75 3.8317953 3.75 3.8317953 3.75 6.4375 C4.32234375 6.67984375 4.8946875 6.9221875 5.484375 7.171875 C8.16903449 8.67158134 9.88875216 10.4547415 12 12.6875 C15.96315242 16.75581069 20.09128716 20.20051969 24.75 23.4375 C24.42 24.4275 24.09 25.4175 23.75 26.4375 C14.81423463 23.58779277 6.0206888 20.44629771 -2.75 17.125 C-5.86131737 15.9556309 -8.97354996 14.78874919 -12.08642578 13.62353516 C-14.20332639 12.82990164 -16.31888232 12.03267251 -18.43310547 11.23193359 C-21.51108633 10.07263222 -24.59764861 8.9397217 -27.6875 7.8125 C-28.615625 7.45760498 -29.54375 7.10270996 -30.5 6.73706055 C-41.61288926 2.74665171 -48.78928996 5.81064748 -59.25 10.4375 C-61.63666443 11.41467771 -64.02747929 12.38176621 -66.421875 13.33984375 C-67.03556946 13.58613022 -67.64926392 13.83241669 -68.28155518 14.08616638 C-75.26399807 16.88762612 -82.25485221 19.66793674 -89.25 22.4375 C-90.2090625 22.81745117 -91.168125 23.19740234 -92.15625 23.58886719 C-94.43377561 24.48599437 -96.71514785 25.37173605 -99 26.25 C-100.19109375 26.71019531 -101.3821875 27.17039063 -102.609375 27.64453125 C-105.25 28.4375 -105.25 28.4375 -107.25 27.4375 C-104.09554667 23.56202876 -100.93847454 19.82690904 -97.25 16.4375 C-96.59 16.4375 -95.93 16.4375 -95.25 16.4375 C-95.25 15.7775 -95.25 15.1175 -95.25 14.4375 C-93.60546875 12.81640625 -93.60546875 12.81640625 -91.4375 11 C-88.42536735 8.46410668 -88.42536735 8.46410668 -85.61328125 5.71484375 C-84.25 4.4375 -84.25 4.4375 -82.25 4.4375 C-81.92 3.4475 -81.59 2.4575 -81.25 1.4375 C-76.42015638 -4.33188767 -70.37656644 -5.38901551 -63.24682617 -6.08178711 C-61.24880389 -6.25311258 -59.24941199 -6.40823675 -57.25 -6.5625 C-55.49959899 -6.76743676 -53.74952073 -6.97517952 -52 -7.1875 C-36.54860869 -8.60518542 -12.55550035 -10.20852447 0 0 Z " fill="#D8CCA3" transform="translate(359.25,212.5625)"/>
<path d="M0 0 C1.32 0.433125 2.64 0.86625 4 1.3125 C4.82113281 1.58191406 5.64226562 1.85132812 6.48828125 2.12890625 C8.76767311 2.91942629 10.96412193 3.81678328 13.1875 4.75 C19.15791141 6.95085754 23.17028676 4.98428719 28.75 2.4375 C29.69359375 1.98246094 30.6371875 1.52742188 31.609375 1.05859375 C34 0 34 0 36 0 C35.67 3.96 35.34 7.92 35 12 C40.94 12 46.88 12 53 12 C53 18.11282505 52.39651271 22.94640768 51.125 28.8125 C50.95097656 29.67037109 50.77695312 30.52824219 50.59765625 31.41210938 C50.42363281 32.23130859 50.24960937 33.05050781 50.0703125 33.89453125 C49.91320801 34.63550049 49.75610352 35.37646973 49.59423828 36.13989258 C49 38 49 38 47 40 C46.94540227 38.43789839 46.90693899 36.87522911 46.875 35.3125 C46.85179687 34.44238281 46.82859375 33.57226562 46.8046875 32.67578125 C47.01896965 29.74011574 47.8948605 27.71261514 49 25 C49.2759478 23.07096868 49.48449903 21.1310968 49.625 19.1875 C49.810625 16.6196875 49.810625 16.6196875 50 14 C44.72 14 39.44 14 34 14 C33.505 10.04 33.505 10.04 33 6 C30.69 6 28.38 6 26 6 C25.34 7.32 24.68 8.64 24 10 C18.77886033 10.20475058 14.84084003 10.15148446 10 8 C7.29113059 7.83201738 7.29113059 7.83201738 5 8 C4.34 9.98 3.68 11.96 3 14 C-2.94 14 -8.88 14 -15 14 C-14.54625 15.27875 -14.0925 16.5575 -13.625 17.875 C-12.18406389 21.93581996 -11.35796566 26.02860907 -10.54003906 30.24804688 C-8.84951289 38.86269926 -6.88779946 47.4268239 -5 56 C-4.83290527 56.76070801 -4.66581055 57.52141602 -4.49365234 58.30517578 C-4.08375453 60.16281667 -3.66724149 62.01899477 -3.25 63.875 C-3.02828125 64.86242187 -2.8065625 65.84984375 -2.578125 66.8671875 C-2.19876006 68.96706809 -2.19876006 68.96706809 -1 70 C-0.77265288 71.58358384 -0.60534449 73.17589263 -0.46484375 74.76953125 C-0.37783203 75.74083984 -0.29082031 76.71214844 -0.20117188 77.71289062 C-0.11416016 78.73576172 -0.02714844 79.75863281 0.0625 80.8125 C0.15337891 81.82376953 0.24425781 82.83503906 0.33789062 83.87695312 C0.69532993 87.94316112 1 91.9144174 1 96 C1.66 96.33 2.32 96.66 3 97 C3 97.66 3 98.32 3 99 C3.7425 98.5359375 3.7425 98.5359375 4.5 98.0625 C7.97986781 96.58355618 11.24028509 96.37597149 15 96 C15 95.34 15 94.68 15 94 C16.43739513 93.97287934 17.87493863 93.95354933 19.3125 93.9375 C20.51326172 93.92009766 20.51326172 93.92009766 21.73828125 93.90234375 C24 94 24 94 27 95 C27 95.66 27 96.32 27 97 C29.97 97.495 29.97 97.495 33 98 C33.10957031 97.21238281 33.21914063 96.42476563 33.33203125 95.61328125 C34.49402568 87.63047397 36.07698004 79.83310132 38 72 C38.66 72 39.32 72 40 72 C40.13535156 70.86949219 40.27070313 69.73898438 40.41015625 68.57421875 C40.98709907 63.96982971 41.68899724 59.3918015 42.4375 54.8125 C42.55931641 54.03197266 42.68113281 53.25144531 42.80664062 52.44726562 C43.47098817 48.38889383 44.25753279 44.76403091 46 41 C46.33 41 46.66 41 47 41 C46.79979992 50.31840357 45.0555186 59.09506951 43.09033203 68.171875 C41.30785215 76.42272228 39.70833168 84.69705134 38.1875 93 C37.96868164 94.19383301 37.74986328 95.38766602 37.52441406 96.61767578 C37.01407514 99.41139103 36.5057635 102.20545339 36 105 C35.01 105 34.02 105 33 105 C33 104.34 33 103.68 33 103 C32.29875 102.731875 31.5975 102.46375 30.875 102.1875 C27.8350176 100.9318551 24.9272226 99.49764877 22 98 C22 97.34 22 96.68 22 96 C17.46928735 96.53459736 14.30093954 97.6997312 10.375 100 C7.25096324 101.82016707 4.5701311 103.32955285 1 104 C-1.60856579 95.61928864 -3.63103786 87.25870226 -5.2902832 78.64453125 C-6.87312817 70.48315124 -8.64617143 62.36744252 -10.4375 54.25 C-12.64698756 44.21715604 -14.83394019 34.18074098 -16.9375 24.125 C-17.25448853 22.61921387 -17.25448853 22.61921387 -17.57788086 21.08300781 C-17.76745361 20.17131836 -17.95702637 19.25962891 -18.15234375 18.3203125 C-18.31726318 17.52898926 -18.48218262 16.73766602 -18.65209961 15.92236328 C-19 14 -19 14 -19 12 C-12.73 12 -6.46 12 0 12 C0 8.04 0 4.08 0 0 Z " fill="#C27670" transform="translate(300,98)"/>
<path d="M0 0 C2.43463589 0.18463372 4.86906103 0.31687968 7.30712891 0.44775391 C15.87477094 1.0057675 22.44061663 1.46506723 29.04931641 7.52197266 C30.35009766 9.17822266 30.35009766 9.17822266 30.35009766 11.17822266 C30.94822266 11.42572266 31.54634766 11.67322266 32.16259766 11.92822266 C34.70868559 13.38313004 35.86744631 14.65771536 37.35009766 17.17822266 C37.35009766 18.49822266 37.35009766 19.81822266 37.35009766 21.17822266 C34.49177976 22.60738161 32.5458048 22.4183625 29.35009766 22.17822266 C26.58775133 21.24033624 23.96703471 20.24658433 21.28759766 19.11572266 C11.1314647 14.98624713 0.77707613 11.55311593 -9.64990234 8.17822266 C-9.64990234 7.51822266 -9.64990234 6.85822266 -9.64990234 6.17822266 C-11.29990234 6.83822266 -12.94990234 7.49822266 -14.64990234 8.17822266 C-14.64990234 7.51822266 -14.64990234 6.85822266 -14.64990234 6.17822266 C-15.30990234 6.17822266 -15.96990234 6.17822266 -16.64990234 6.17822266 C-16.64990234 5.51822266 -16.64990234 4.85822266 -16.64990234 4.17822266 C-14.00990234 3.51822266 -11.36990234 2.85822266 -8.64990234 2.17822266 C-12.27990234 2.50822266 -15.90990234 2.83822266 -19.64990234 3.17822266 C-19.31990234 2.18822266 -18.98990234 1.19822266 -18.64990234 0.17822266 C-12.4562612 -1.3878501 -6.28761784 -0.51413315 0 0 Z " fill="#DCCFA4" transform="translate(328.64990234375,206.82177734375)"/>
<path d="M0 0 C2.39504895 3.8636868 2.8035556 8.09609629 3.4375 12.5078125 C3.56310303 13.34730438 3.68870605 14.18679626 3.81811523 15.05172729 C4.08348435 16.83494921 4.34552668 18.61866891 4.60449219 20.40283203 C4.99170768 23.0679263 5.38940102 25.73127837 5.7890625 28.39453125 C7.4490437 39.57210202 8.83509366 50.76036694 10 62 C9.01 62 8.02 62 7 62 C7 61.34 7 60.68 7 60 C6.34 60 5.68 60 5 60 C3.77079631 58.30569221 2.54747069 56.60640345 1.37109375 54.875 C-0.1014029 52.75327889 -0.1014029 52.75327889 -2.75 50.3125 C-4.93241865 48.06945861 -5.66144556 47.04698993 -6 44 C-3 43 -3 43 2 44 C2.33 38.72 2.66 33.44 3 28 C2.34 28 1.68 28 1 28 C0.07840421 21.78829926 -0.12177385 15.77390894 -0.0625 9.5 C-0.05798828 8.5821875 -0.05347656 7.664375 -0.04882812 6.71875 C-0.03716326 4.47909609 -0.02079614 2.23958455 0 0 Z " fill="#D2CAA6" transform="translate(288,388)"/>
<path d="M0 0 C3.75 3.8317953 3.75 3.8317953 3.75 6.4375 C4.32234375 6.67984375 4.8946875 6.9221875 5.484375 7.171875 C8.16903449 8.67158134 9.88875216 10.4547415 12 12.6875 C15.96315242 16.75581069 20.09128716 20.20051969 24.75 23.4375 C24.42 24.4275 24.09 25.4175 23.75 26.4375 C11.48159679 22.52498038 -0.54337609 18.01308522 -12.58154297 13.44824219 C-16.13441499 12.10250658 -19.69183225 10.7691623 -23.25 9.4375 C-19.986463 8.33612467 -18.33867898 8.49919631 -15.203125 9.87109375 C-14.44 10.19013672 -13.676875 10.50917969 -12.890625 10.83789062 C-11.31144947 11.52297413 -9.7333011 12.21043077 -8.15625 12.90039062 C-2.89583168 15.09370263 1.04799162 15.80852109 6.75 15.4375 C6.75 14.7775 6.75 14.1175 6.75 13.4375 C6.09 13.1075 5.43 12.7775 4.75 12.4375 C4.75 11.4475 4.75 10.4575 4.75 9.4375 C3.12946188 8.04846733 1.45294787 6.72417172 -0.25 5.4375 C-1.91666667 3.77083333 -3.58333333 2.10416667 -5.25 0.4375 C-8.41292145 -2.36385873 -10.77255398 -3.06194263 -14.94921875 -3.546875 C-16.068125 -3.67795654 -17.18703125 -3.80903809 -18.33984375 -3.9440918 C-19.52707031 -4.0656665 -20.71429688 -4.18724121 -21.9375 -4.3125 C-23.15179688 -4.44245361 -24.36609375 -4.57240723 -25.6171875 -4.70629883 C-35.04981271 -5.63039037 -43.836694 -5.42856539 -53.25 -4.5625 C-56.91931889 -4.47995064 -60.58065498 -4.49117364 -64.25 -4.5625 C-64.25 -4.8925 -64.25 -5.2225 -64.25 -5.5625 C-61.6676184 -5.90518571 -59.08452293 -6.2366828 -56.5 -6.5625 C-55.78972656 -6.65789062 -55.07945312 -6.75328125 -54.34765625 -6.8515625 C-38.43769711 -8.82270788 -12.9643039 -10.54091115 0 0 Z " fill="#C1BB9A" transform="translate(359.25,212.5625)"/>
<path d="M0 0 C0 0.99 0 1.98 0 3 C-0.99 3.495 -0.99 3.495 -2 4 C-0.35 5.65 1.3 7.3 3 9 C2.525625 9.433125 2.05125 9.86625 1.5625 10.3125 C-0.23686957 12.02309613 -0.23686957 12.02309613 -1 15 C-2.90185547 16.09082031 -2.90185547 16.09082031 -5.3671875 17.078125 C-6.69556641 17.61179688 -6.69556641 17.61179688 -8.05078125 18.15625 C-8.98277344 18.5171875 -9.91476562 18.878125 -10.875 19.25 C-11.79925781 19.62640625 -12.72351563 20.0028125 -13.67578125 20.390625 C-20.61263497 23.12912168 -20.61263497 23.12912168 -24 22 C-22.56570999 21.32645501 -21.12742943 20.66140299 -19.6875 20 C-18.48673828 19.443125 -18.48673828 19.443125 -17.26171875 18.875 C-15 18 -15 18 -12 18 C-12 17.34 -12 16.68 -12 16 C-12.7425 15.896875 -13.485 15.79375 -14.25 15.6875 C-17.17014018 14.95746496 -18.73187554 13.93210602 -21 12 C-20.01 11.67 -19.02 11.34 -18 11 C-18 10.34 -18 9.68 -18 9 C-17.21625 8.54625 -16.4325 8.0925 -15.625 7.625 C-12.76321538 5.85341905 -12.40585857 4.90544105 -11 2 C-7.72298751 -0.14700819 -3.65743178 -1.82871589 0 0 Z " fill="#DDD0A0" transform="translate(296,210)"/>
<path d="M0 0 C1.32 0.33 2.64 0.66 4 1 C4.26483245 8.98174997 4.5258269 16.96361337 4.78230286 24.9456358 C4.9015873 28.65449221 5.02205326 32.36330135 5.14550781 36.07202148 C6.08702208 64.40701672 6.08702208 64.40701672 6.125 77.39453125 C6.12959229 78.2429509 6.13418457 79.09137054 6.13891602 79.96549988 C6.13030385 83.23754296 6.04204612 85.87386163 5 89 C3.37109375 90.60546875 3.37109375 90.60546875 1.4375 92.1875 C0.79683594 92.71730469 0.15617187 93.24710937 -0.50390625 93.79296875 C-0.99761719 94.19128906 -1.49132812 94.58960938 -2 95 C-2.66 94.67 -3.32 94.34 -4 94 C-3.54625 93.5875 -3.0925 93.175 -2.625 92.75 C2.13913348 87.61939471 2.12676013 81.14062767 2.11352539 74.44384766 C2.11344986 73.16297272 2.11337433 71.88209778 2.11329651 70.56240845 C2.10819105 69.17962606 2.10297508 67.79684408 2.09765625 66.4140625 C2.09578917 64.98774261 2.09436664 63.56142208 2.09336853 62.13510132 C2.08956615 58.39673058 2.07975552 54.65839922 2.06866455 50.92004395 C2.05840124 47.09904513 2.0538604 43.2780399 2.04882812 39.45703125 C2.03813103 31.97133629 2.02108223 24.48567368 2 17 C1.67 19.64 1.34 22.28 1 25 C0.67 25 0.34 25 0 25 C0 16.75 0 8.5 0 0 Z " fill="#C9C1A0" transform="translate(402,255)"/>
<path d="M0 0 C1.32 0.433125 2.64 0.86625 4 1.3125 C4.82113281 1.58191406 5.64226562 1.85132812 6.48828125 2.12890625 C8.76767311 2.91942629 10.96412193 3.81678328 13.1875 4.75 C19.15791141 6.95085754 23.17028676 4.98428719 28.75 2.4375 C29.69359375 1.98246094 30.6371875 1.52742188 31.609375 1.05859375 C34 0 34 0 36 0 C35.67 3.96 35.34 7.92 35 12 C40.94 12 46.88 12 53 12 C53 18.11282505 52.39651271 22.94640768 51.125 28.8125 C50.95097656 29.67037109 50.77695312 30.52824219 50.59765625 31.41210938 C50.42363281 32.23130859 50.24960937 33.05050781 50.0703125 33.89453125 C49.91320801 34.63550049 49.75610352 35.37646973 49.59423828 36.13989258 C49 38 49 38 47 40 C46.94540227 38.43789839 46.90693899 36.87522911 46.875 35.3125 C46.85179687 34.44238281 46.82859375 33.57226562 46.8046875 32.67578125 C47.01896965 29.74011574 47.8948605 27.71261514 49 25 C49.2759478 23.07096868 49.48449903 21.1310968 49.625 19.1875 C49.810625 16.6196875 49.810625 16.6196875 50 14 C44.72 14 39.44 14 34 14 C33.505 10.04 33.505 10.04 33 6 C30.69 6 28.38 6 26 6 C25.34 7.32 24.68 8.64 24 10 C17.55405806 10.40287137 12.88165389 9.73801129 7 7 C6.49210937 6.49082031 5.98421875 5.98164062 5.4609375 5.45703125 C3.95306255 3.73656761 3.95306255 3.73656761 1 3 C1 5.64 1 8.28 1 11 C0.67 11 0.34 11 0 11 C0 7.37 0 3.74 0 0 Z " fill="#CC716E" transform="translate(300,98)"/>
<path d="M0 0 C0.33 0 0.66 0 1 0 C1.02578125 1.19238281 1.0515625 2.38476562 1.078125 3.61328125 C1.13440439 5.1797242 1.19175177 6.74612903 1.25 8.3125 C1.26417969 9.09818359 1.27835938 9.88386719 1.29296875 10.69335938 C1.3610613 15.31322608 1.3610613 15.31322608 3.96484375 18.90234375 C4.63644531 19.26457031 5.30804688 19.62679688 6 20 C6.433125 20.7425 6.86625 21.485 7.3125 22.25 C10.33413931 27.17415295 14.48661096 31.17561557 19.375 34.25 C22 36 22 36 23 39 C23.845625 39.825 24.69125 40.65 25.5625 41.5 C28 44 28 44 28 47 C28.66 47 29.32 47 30 47 C30 47.99 30 48.98 30 50 C30.66 50 31.32 50 32 50 C32 50.99 32 51.98 32 53 C29.13302508 51.71480435 27.02392288 50.42870746 25 48 C25 47.34 25 46.68 25 46 C24.34 46 23.68 46 23 46 C20 42.53846154 20 42.53846154 20 40 C19.34 40 18.68 40 18 40 C14 34.58823529 14 34.58823529 14 32 C13.1646875 31.690625 13.1646875 31.690625 12.3125 31.375 C9.02987629 29.42316968 7.29326754 27.05769006 5 24 C5 23.34 5 22.68 5 22 C4.34 22 3.68 22 3 22 C3 21.34 3 20.68 3 20 C2.01 19.67 1.02 19.34 0 19 C-1.27603607 15.17189179 -0.86283987 11.76524893 -0.5625 7.8125 C-0.51029297 7.06291016 -0.45808594 6.31332031 -0.40429688 5.54101562 C-0.27486216 3.69362918 -0.13813482 1.84675629 0 0 Z " fill="#D1C9AB" transform="translate(241,368)"/>
<path d="M0 0 C0.99 0.495 0.99 0.495 2 1 C2 6.61 2 12.22 2 18 C3.32 18.66 4.64 19.32 6 20 C7.77589998 21.25014012 9.49473245 22.55846553 11.21875 23.87890625 C12.96823234 25.12190142 12.96823234 25.12190142 15.15625 25.46484375 C16.06890625 25.72974609 16.06890625 25.72974609 17 26 C17.33 26.99 17.66 27.98 18 29 C18.99 29.33 19.98 29.66 21 30 C21 30.99 21 31.98 21 33 C22.65 33.33 24.3 33.66 26 34 C26.061875 33.401875 26.12375 32.80375 26.1875 32.1875 C27.3361092 29.09509062 29.14187109 28.52876662 32 27 C32.721875 26.443125 33.44375 25.88625 34.1875 25.3125 C36 24 36 24 38 24 C38 24.66 38 25.32 38 26 C37.34 26 36.68 26 36 26 C35.505 27.485 35.505 27.485 35 29 C34.34 29 33.68 29 33 29 C32.505 30.485 32.505 30.485 32 32 C29.33862801 34.38122757 27.4032423 35.8655859 24 37 C22.3515625 35.890625 22.3515625 35.890625 20.625 34.25 C17.92104282 31.70655169 15.18510287 29.90148247 12 28 C10.24895441 26.67424585 8.51969222 25.31926678 6.8125 23.9375 C5.95269531 23.24527344 5.09289062 22.55304688 4.20703125 21.83984375 C0.04470079 18.37000721 0.04470079 18.37000721 -0.22705078 16.12060547 C-0.21657715 15.37697754 -0.20610352 14.63334961 -0.1953125 13.8671875 C-0.18886719 13.06152344 -0.18242187 12.25585938 -0.17578125 11.42578125 C-0.15064453 10.16314453 -0.15064453 10.16314453 -0.125 8.875 C-0.11597656 8.02550781 -0.10695313 7.17601562 -0.09765625 6.30078125 C-0.07405647 4.20040116 -0.03818483 2.10016556 0 0 Z " fill="#CFC7A9" transform="translate(295,350)"/>
<path d="M0 0 C0 0.66 0 1.32 0 2 C-6.0605925 5.36561591 -11.03949747 7.61330541 -18 8 C-18 8.99 -18 9.98 -18 11 C-19.24460783 11.67667998 -20.49596896 12.34094719 -21.75 13 C-22.79414063 13.556875 -22.79414063 13.556875 -23.859375 14.125 C-26 15 -26 15 -30 15 C-30 13.68 -30 12.36 -30 11 C-29.401875 10.896875 -28.80375 10.79375 -28.1875 10.6875 C-25.95270756 10.17219357 -25.95270756 10.17219357 -24.60083008 8.58691406 C-21.79993806 5.81037019 -18.21635222 4.42897812 -14.6875 2.75 C-13.94048828 2.37359375 -13.19347656 1.9971875 -12.42382812 1.609375 C-7.88389083 -0.55895326 -5.03671526 -1.50540933 0 0 Z M0 -1 C2 0 2 0 2 0 Z " fill="#D5CDAB" transform="translate(382,337)"/>
<path d="M0 0 C0.99 0.495 0.99 0.495 2 1 C2.54711914 2.88745117 2.54711914 2.88745117 2.97265625 5.35546875 C3.13781738 6.26216309 3.30297852 7.16885742 3.47314453 8.10302734 C3.64700684 9.05902832 3.82086914 10.0150293 4 11 C4.38646517 12.85196198 4.78106113 14.70224507 5.18359375 16.55078125 C5.38758789 17.49099121 5.59158203 18.43120117 5.80175781 19.39990234 C6.86420416 24.26740808 7.92861445 29.13445302 9 34 C9.16709473 34.76070801 9.33418945 35.52141602 9.50634766 36.30517578 C9.91624547 38.16281667 10.33275851 40.01899477 10.75 41.875 C10.97171875 42.86242187 11.1934375 43.84984375 11.421875 44.8671875 C11.80123994 46.96706809 11.80123994 46.96706809 13 48 C13.23527773 50.34987262 13.41386417 52.70556039 13.5625 55.0625 C13.64628906 56.35285156 13.73007812 57.64320313 13.81640625 58.97265625 C13.87699219 59.97167969 13.93757813 60.97070312 14 62 C11.31991645 59.31991645 11.01599968 56.97715541 10.0625 53.3125 C9.89137695 52.65564209 9.72025391 51.99878418 9.54394531 51.32202148 C7.74593056 44.27142637 6.33880259 37.15042292 5 30 C4.34 30 3.68 30 3 30 C3 24.39 3 18.78 3 13 C2.34 13 1.68 13 1 13 C0.67 8.71 0.34 4.42 0 0 Z " fill="#DD706F" transform="translate(286,120)"/>
<path d="M0 0 C3.75 3.8317953 3.75 3.8317953 3.75 6.4375 C4.32234375 6.68242187 4.8946875 6.92734375 5.484375 7.1796875 C8.13024402 8.64860099 9.89853139 10.39098244 12 12.5625 C12.70640625 13.28695312 13.4128125 14.01140625 14.140625 14.7578125 C14.93726563 15.58925781 14.93726563 15.58925781 15.75 16.4375 C11.58048082 16.4375 10.55585535 14.70792164 7.5625 11.875 C6.57994951 10.95647209 5.5968727 10.03850688 4.61328125 9.12109375 C3.19595703 7.79271484 3.19595703 7.79271484 1.75 6.4375 C0.25741167 5.09587492 -1.24153803 3.76125234 -2.75 2.4375 C-3.66265625 1.633125 -3.66265625 1.633125 -4.59375 0.8125 C-9.87874162 -3.57504021 -15.2421179 -3.52905399 -21.875 -4.25 C-23.70321289 -4.451698 -23.70321289 -4.451698 -25.56835938 -4.6574707 C-35.03137323 -5.61617069 -43.8042471 -5.43155065 -53.25 -4.5625 C-56.91931889 -4.47995064 -60.58065498 -4.49117364 -64.25 -4.5625 C-64.25 -4.8925 -64.25 -5.2225 -64.25 -5.5625 C-61.6676184 -5.90518571 -59.08452293 -6.2366828 -56.5 -6.5625 C-55.78972656 -6.65789062 -55.07945312 -6.75328125 -54.34765625 -6.8515625 C-38.43769711 -8.82270788 -12.9643039 -10.54091115 0 0 Z " fill="#A09A7E" transform="translate(359.25,212.5625)"/>
<path d="M0 0 C-1.44253657 3.36591866 -3.33264727 5.51047079 -6 8 C-4.68 8.33 -3.36 8.66 -2 9 C-2.99 9.33 -3.98 9.66 -5 10 C-3.68 10.66 -2.36 11.32 -1 12 C-2.96466413 13.06775224 -4.96855359 14.06553465 -7 15 C-7.66 14.67 -8.32 14.34 -9 14 C-8.34 12.68 -7.68 11.36 -7 10 C-11.29238623 11.65091778 -13.8793915 14.73754566 -17 18 C-13.04 17.34 -9.08 16.68 -5 16 C-8.81021862 18.85766396 -11.68922192 20.1757155 -16.125 21.75 C-17.36507813 22.19859375 -18.60515625 22.6471875 -19.8828125 23.109375 C-23 24 -23 24 -25 23 C-21.84554667 19.12452876 -18.68847454 15.38940904 -15 12 C-14.34 12 -13.68 12 -13 12 C-13 11.34 -13 10.68 -13 10 C-11.35546875 8.37890625 -11.35546875 8.37890625 -9.1875 6.5625 C-6.17536735 4.02660668 -6.17536735 4.02660668 -3.36328125 1.27734375 C-2 0 -2 0 0 0 Z " fill="#AFAA90" transform="translate(277,217)"/>
<path d="M0 0 C0.33 0.66 0.66 1.32 1 2 C22.78 2 44.56 2 67 2 C67.33 1.34 67.66 0.68 68 0 C68.99 0.99 68.99 0.99 70 2 C69.625 4.625 69.625 4.625 69 7 C66.03 7 63.06 7 60 7 C60.66 6.67 61.32 6.34 62 6 C62 5.34 62 4.68 62 4 C41.54 3.67 21.08 3.34 0 3 C0 2.01 0 1.02 0 0 Z " fill="#E1DECD" transform="translate(178,559)"/>
<path d="M0 0 C0.33 0 0.66 0 1 0 C1 1.98 1 3.96 1 6 C6.94 6 12.88 6 19 6 C19 12.11282505 18.39651271 16.94640768 17.125 22.8125 C16.86396484 24.09930664 16.86396484 24.09930664 16.59765625 25.41210938 C16.33662109 26.6409082 16.33662109 26.6409082 16.0703125 27.89453125 C15.91320801 28.63550049 15.75610352 29.37646973 15.59423828 30.13989258 C15 32 15 32 13 34 C12.94540227 32.43789839 12.90693899 30.87522911 12.875 29.3125 C12.85179687 28.44238281 12.82859375 27.57226562 12.8046875 26.67578125 C13.01896965 23.74011574 13.8948605 21.71261514 15 19 C15.2759478 17.07096868 15.48449903 15.1310968 15.625 13.1875 C15.74875 11.475625 15.8725 9.76375 16 8 C10.72 8 5.44 8 0 8 C0 5.36 0 2.72 0 0 Z " fill="#B47068" transform="translate(334,104)"/>
<path d="M0 0 C6.95515899 -0.64699153 13.63961405 1.21518237 20 4 C21.03793963 5.30401653 22.04614133 6.63327713 23 8 C26.12586875 8.33397787 26.12586875 8.33397787 29 8 C28.01 8.495 28.01 8.495 27 9 C27 9.66 27 10.32 27 11 C19.74757682 10.36935451 13.07109102 8.04739401 7 4 C5.96875 3.67 4.9375 3.34 3.875 3 C1 2 1 2 0 0 Z " fill="#D2CAA8" transform="translate(267,320)"/>
<path d="M0 0 C10.02821435 0.93285715 19.39490707 4.53803242 28.42578125 8.8359375 C31.56085444 10.25361855 34.73928595 11.32243665 38.02734375 12.32421875 C40.12945394 13.04434759 42.03514493 13.9670225 44 15 C41.13822943 16.43088528 39.06624227 15.59991697 36 15 C36 14.34 36 13.68 36 13 C34.02 13 32.04 13 30 13 C30 12.34 30 11.68 30 11 C29.33613281 10.87882813 28.67226563 10.75765625 27.98828125 10.6328125 C23.41634315 9.76514541 19.31639374 8.74988936 15 7 C13.80375 6.855625 12.6075 6.71125 11.375 6.5625 C7.77391936 5.96231989 7.27584658 5.5861893 5 3 C2.40084462 1.80972016 2.40084462 1.80972016 0 1 C0 0.67 0 0.34 0 0 Z " fill="#CCC3A4" transform="translate(318,225)"/>
<path d="M0 0 C0.66 0 1.32 0 2 0 C2.66 9.24 3.32 18.48 4 28 C3.34 28 2.68 28 2 28 C1.87625 28.639375 1.7525 29.27875 1.625 29.9375 C1.41875 30.618125 1.2125 31.29875 1 32 C0.01 32.495 0.01 32.495 -1 33 C-1.12281697 25.50816507 -0.78334307 18.07894911 -0.35571289 10.60229492 C-0.31051514 9.80799072 -0.26531738 9.01368652 -0.21875 8.1953125 C-0.17685547 7.48391113 -0.13496094 6.77250977 -0.09179688 6.03955078 C-0.00126793 4.02817091 0 2.01341612 0 0 Z " fill="#CCC5A0" transform="translate(393,356)"/>
<path d="M0 0 C0.99 0 1.98 0 3 0 C3 0.66 3 1.32 3 2 C2.34 2 1.68 2 1 2 C0.7525 2.55171875 0.505 3.1034375 0.25 3.671875 C-1.24234474 6.45136707 -3.03672523 8.7814707 -5 11.25 C-5.70125 12.14203125 -6.4025 13.0340625 -7.125 13.953125 C-8.053125 14.96632813 -8.053125 14.96632813 -9 16 C-9.66 16 -10.32 16 -11 16 C-11 16.66 -11 17.32 -11 18 C-11.66 18 -12.32 18 -13 18 C-12.67 14.7 -12.34 11.4 -12 8 C-11.01 8.33 -10.02 8.66 -9 9 C-9 9.66 -9 10.32 -9 11 C-8.01 10.01 -7.02 9.02 -6 8 C-6.66 8 -7.32 8 -8 8 C-7.67 6.68 -7.34 5.36 -7 4 C-7 4.66 -7 5.32 -7 6 C-3.18586998 4.8321734 -3.18586998 4.8321734 -0.6875 1.875 C-0.460625 1.25625 -0.23375 0.6375 0 0 Z " fill="#C9C4AA" transform="translate(354,432)"/>
<path d="M0 0 C0.33 0 0.66 0 1 0 C0.22009663 8.05009053 -0.66322643 16.08747356 -1.5625 24.125 C-1.70107422 25.36765625 -1.83964844 26.6103125 -1.98242188 27.890625 C-2.32111009 30.92714002 -2.66031394 33.96359647 -3 37 C-3.66 37 -4.32 37 -5 37 C-5 34.36 -5 31.72 -5 29 C-5.66 29 -6.32 29 -7 29 C-6.505 27.515 -6.505 27.515 -6 26 C-5.62492382 24.10819242 -5.27266781 22.21178423 -4.9375 20.3125 C-4.76089844 19.31863281 -4.58429688 18.32476562 -4.40234375 17.30078125 C-4.26957031 16.54152344 -4.13679688 15.78226562 -4 15 C-3.67 15 -3.34 15 -3 15 C-2.86722656 14.08476562 -2.73445313 13.16953125 -2.59765625 12.2265625 C-2.42105469 11.03804688 -2.24445313 9.84953125 -2.0625 8.625 C-1.88847656 7.44164062 -1.71445312 6.25828125 -1.53515625 5.0390625 C-1 2 -1 2 0 0 Z " fill="#EBE6CE" transform="translate(351,355)"/>
<path d="M0 0 C0.33 0 0.66 0 1 0 C2.90858766 10.75852688 4.53132662 21.03892859 4 32 C3.34 32 2.68 32 2 32 C1.855625 30.906875 1.71125 29.81375 1.5625 28.6875 C1.11711896 25.06877013 1.11711896 25.06877013 0 22 C-0.08178114 20.29983156 -0.10749501 18.59663703 -0.09765625 16.89453125 C-0.09443359 15.91162109 -0.09121094 14.92871094 -0.08789062 13.91601562 C-0.07951172 12.89185547 -0.07113281 11.86769531 -0.0625 10.8125 C-0.05798828 9.77673828 -0.05347656 8.74097656 -0.04882812 7.67382812 C-0.0370401 5.11582734 -0.02058515 2.55794267 0 0 Z " fill="#CAC1A2" transform="translate(338,336)"/>
<path d="M0 0 C0.33 0 0.66 0 1 0 C0.81171957 8.76359842 -0.67471564 17.12231466 -2.4375 25.6875 C-2.65494873 26.76322266 -2.87239746 27.83894531 -3.09643555 28.94726562 C-3.31082275 29.95853516 -3.52520996 30.96980469 -3.74609375 32.01171875 C-3.93872803 32.92397217 -4.1313623 33.83622559 -4.32983398 34.77612305 C-5 37 -5 37 -7 39 C-6.00522554 30.40982997 -4.88410052 21.84939969 -3.5 13.3125 C-3.38164795 12.5592041 -3.2632959 11.8059082 -3.14135742 11.02978516 C-2.49217259 7.12411318 -1.64996026 3.60573212 0 0 Z " fill="#B6716A" transform="translate(346,139)"/>
<path d="M0 0 C0.66 0 1.32 0 2 0 C2.33 4.62 2.66 9.24 3 14 C2.34 14 1.68 14 1 14 C0.87882812 14.60585937 0.75765625 15.21171875 0.6328125 15.8359375 C-0.578125 21.890625 -1.7890625 27.9453125 -3 34 C-3.33 34 -3.66 34 -4 34 C-4.02749766 32.62511713 -4.0466164 31.25006609 -4.0625 29.875 C-4.07410156 29.10929687 -4.08570313 28.34359375 -4.09765625 27.5546875 C-3.98560199 24.62334816 -3.51792187 21.88945883 -3 19 C-2.74551721 17.41977978 -2.49450373 15.83899874 -2.24609375 14.2578125 C-2.11396484 13.41992188 -1.98183594 12.58203125 -1.84570312 11.71875 C-1.71099609 10.8628125 -1.57628906 10.006875 -1.4375 9.125 C-1.29892578 8.24585938 -1.16035156 7.36671875 -1.01757812 6.4609375 C-0.67815064 4.30732866 -0.33904301 2.15366941 0 0 Z " fill="#DD7271" transform="translate(345,128)"/>
<path d="M0 0 C0.99 0 1.98 0 3 0 C3.28875 0.61875 3.5775 1.2375 3.875 1.875 C4.93720042 4.13325765 4.93720042 4.13325765 7 6 C5.35 5.67 3.7 5.34 2 5 C2.0721875 5.67804688 2.144375 6.35609375 2.21875 7.0546875 C2.85113709 13.39612473 3.12438222 19.62886647 3 26 C5.475 26.99 5.475 26.99 8 28 C8 28.66 8 29.32 8 30 C2.125 28.125 2.125 28.125 1 27 C0.84174742 25.00217874 0.74880829 22.99911166 0.68359375 20.99609375 C0.64169922 19.78115234 0.59980469 18.56621094 0.55664062 17.31445312 C0.51732422 16.03505859 0.47800781 14.75566406 0.4375 13.4375 C0.39431641 12.15423828 0.35113281 10.87097656 0.30664062 9.54882812 C0.200152 6.36600147 0.09814038 3.18309326 0 0 Z " fill="#D0C5A6" transform="translate(256,312)"/>
<path d="M0 0 C2.38671875 0.52734375 2.38671875 0.52734375 5 2 C5.90091438 4.65969604 6.42332578 6.82430374 6.8125 9.5625 C6.93085205 10.28179687 7.0492041 11.00109375 7.17114258 11.7421875 C7.96748206 16.87017489 8.27806674 21.80942094 8 27 C7.67 27 7.34 27 7 27 C6.34 23.7 5.68 20.4 5 17 C4.34 17.33 3.68 17.66 3 18 C2.92652344 16.39318359 2.92652344 16.39318359 2.8515625 14.75390625 C2.77654706 13.35674361 2.7009987 11.9596095 2.625 10.5625 C2.5940625 9.85544922 2.563125 9.14839844 2.53125 8.41992188 C2.42719371 6.60760812 2.22080108 4.80182012 2 3 C1.34 2.67 0.68 2.34 0 2 C0 1.34 0 0.68 0 0 Z " fill="#C8C2A0" transform="translate(278,347)"/>
<path d="M0 0 C2.475 0.495 2.475 0.495 5 1 C5.33 1.99 5.66 2.98 6 4 C5.525625 4.4125 5.05125 4.825 4.5625 5.25 C2.63715751 7.13326435 2.63715751 7.13326435 2 11 C-5.26 10.67 -12.52 10.34 -20 10 C-20 9.67 -20 9.34 -20 9 C-13.73 8.67 -7.46 8.34 -1 8 C-0.67 5.36 -0.34 2.72 0 0 Z " fill="#C66C6B" transform="translate(301,101)"/>
<path d="M0 0 C0.66 0.66 1.32 1.32 2 2 C1.9375 3.9375 1.9375 3.9375 1 6 C-0.66279327 7.0064275 -2.32983484 8.00585407 -4 9 C-4.45375 9.845625 -4.9075 10.69125 -5.375 11.5625 C-7.65908711 14.98863066 -10.08650122 15.1877644 -14 16 C-9.40525596 10.60117576 -4.72323727 5.28666913 0 0 Z " fill="#E7E3D6" transform="translate(245,472)"/>
<path d="M0 0 C0.33 0 0.66 0 1 0 C1.02901394 3.4374823 1.04680335 6.87493312 1.0625 10.3125 C1.07087891 11.28896484 1.07925781 12.26542969 1.08789062 13.27148438 C1.09111328 14.20927734 1.09433594 15.14707031 1.09765625 16.11328125 C1.10289307 16.97735596 1.10812988 17.84143066 1.11352539 18.73168945 C0.96473516 21.70461427 0.51559704 23.49182163 -1.62890625 25.60546875 C-2.26699219 26.12753906 -2.90507812 26.64960938 -3.5625 27.1875 C-4.20316406 27.71730469 -4.84382813 28.24710937 -5.50390625 28.79296875 C-5.99761719 29.19128906 -6.49132812 29.58960938 -7 30 C-7.66 29.67 -8.32 29.34 -9 29 C-8.54882812 28.60039062 -8.09765625 28.20078125 -7.6328125 27.7890625 C-5.77974828 25.75867156 -4.92284634 23.9079829 -3.875 21.375 C-2.08333333 17.08333333 -2.08333333 17.08333333 -1 16 C-0.76321284 13.30764224 -0.57801975 10.63501844 -0.4375 7.9375 C-0.39431641 7.17888672 -0.35113281 6.42027344 -0.30664062 5.63867188 C-0.20026367 3.75934562 -0.09960066 1.87969756 0 0 Z " fill="#D1C9AD" transform="translate(407,320)"/>
<path d="M0 0 C2 2 2 2 2.1953125 4.8203125 C2.13020833 7.88020833 2.06510417 10.94010417 2 14 C-4.27 14 -10.54 14 -17 14 C-17 13.67 -17 13.34 -17 13 C-9.08 12.505 -9.08 12.505 -1 12 C-0.67 10.35 -0.34 8.7 0 7 C-0.66 7 -1.32 7 -2 7 C-2 5.35 -2 3.7 -2 2 C-1.67 2.99 -1.34 3.98 -1 5 C-0.67 3.35 -0.34 1.7 0 0 Z " fill="#EED5CA" transform="translate(298,96)"/>
<path d="M0 0 C1.32 0.66 2.64 1.32 4 2 C4 5 4 5 2.3125 6.75 C-0.66287836 8.35831263 -1.75014818 7.68020154 -5 7 C-8.73552029 7.86429586 -8.73552029 7.86429586 -12 9 C-10 6 -10 6 -7 5 C-6.525625 4.505 -6.05125 4.01 -5.5625 3.5 C-3.74806281 1.75814029 -2.44440923 1.42144987 0 1 C0 0.67 0 0.34 0 0 Z " fill="#F4F0DE" transform="translate(288,228)"/>
<path d="M0 0 C0.65234375 1.765625 0.65234375 1.765625 1 4 C0.00390625 5.921875 0.00390625 5.921875 -1.4375 7.75 C-2.14712891 8.67039062 -2.14712891 8.67039062 -2.87109375 9.609375 C-3.24363281 10.06828125 -3.61617187 10.5271875 -4 11 C-3.01 10.67 -2.02 10.34 -1 10 C-1 10.66 -1 11.32 -1 12 C-3.97 12 -6.94 12 -10 12 C-9.34 10.35 -8.68 8.7 -8 7 C-7.34 7 -6.68 7 -6 7 C-5.67 6.01 -5.34 5.02 -5 4 C-3.37667033 2.61423077 -1.71275535 1.27358732 0 0 Z " fill="#726E65" transform="translate(190,548)"/>
<path d="M0 0 C-0.99 0.495 -0.99 0.495 -2 1 C-2.33 1.66 -2.66 2.32 -3 3 C-5.4814731 2.55208067 -7.9596645 2.09226182 -10.4375 1.625 C-11.14455078 1.49867188 -11.85160156 1.37234375 -12.58007812 1.2421875 C-14.40052 0.89377757 -16.20271648 0.452957 -18 0 C-18.33 -0.66 -18.66 -1.32 -19 -2 C-12.85381342 -3.88785869 -5.70949691 -2.85474845 0 0 Z " fill="#D3C8A5" transform="translate(404,254)"/>
<path d="M0 0 C0.33 1.32 0.66 2.64 1 4 C1.763125 3.773125 2.52625 3.54625 3.3125 3.3125 C6 3 6 3 7.8125 4.3125 C9 6 9 6 9 8 C9.66 8.33 10.32 8.66 11 9 C10.34 9 9.68 9 9 9 C9.33 10.65 9.66 12.3 10 14 C9.34 13.319375 8.68 12.63875 8 11.9375 C4.50531766 8.43274653 0.74869221 5.22778212 -3 2 C-2.01 1.34 -1.02 0.68 0 0 Z " fill="#DDD9CF" transform="translate(449,477)"/>
<path d="M0 0 C7.92 0.33 15.84 0.66 24 1 C20.625 4.375 20.625 4.375 16.55078125 4.51171875 C15.27944336 4.56489258 15.27944336 4.56489258 13.98242188 4.61914062 C13.10134766 4.64169922 12.22027344 4.66425781 11.3125 4.6875 C9.97348633 4.73874023 9.97348633 4.73874023 8.60742188 4.79101562 C6.40507329 4.87345648 4.20312062 4.94261551 2 5 C2 4.34 2 3.68 2 3 C1.34 2.67 0.68 2.34 0 2 C0 1.34 0 0.68 0 0 Z " fill="#E8E4D6" transform="translate(280,465)"/>
<path d="M0 0 C0.51046875 0.37898437 1.0209375 0.75796875 1.546875 1.1484375 C-1.453125 3.1484375 -1.453125 3.1484375 -5.453125 3.1484375 C-5.123125 4.1384375 -4.793125 5.1284375 -4.453125 6.1484375 C-5.01 5.9215625 -5.566875 5.6946875 -6.140625 5.4609375 C-9.35709594 5.02627926 -10.753696 6.48725042 -13.453125 8.1484375 C-14.443125 7.8184375 -15.433125 7.4884375 -16.453125 7.1484375 C-15.793125 7.1484375 -15.133125 7.1484375 -14.453125 7.1484375 C-14.453125 6.4884375 -14.453125 5.8284375 -14.453125 5.1484375 C-15.113125 4.8184375 -15.773125 4.4884375 -16.453125 4.1484375 C-14.20908798 3.25442275 -11.96022367 2.38328461 -9.703125 1.5234375 C-9.06890625 1.26820313 -8.4346875 1.01296875 -7.78125 0.75 C-3.00217062 -1.04215477 -3.00217062 -1.04215477 0 0 Z " fill="#D3CAA8" transform="translate(282.453125,238.8515625)"/>
<path d="M0 0 C3.23693164 1.48483103 5.9325625 3.32707435 8.75 5.5 C9.54921875 6.1084375 10.3484375 6.716875 11.171875 7.34375 C11.77515625 7.8903125 12.3784375 8.436875 13 9 C13 9.66 13 10.32 13 11 C13.57234375 11.24492187 14.1446875 11.48984375 14.734375 11.7421875 C17.38024402 13.21110099 19.14853139 14.95348244 21.25 17.125 C21.95640625 17.84945312 22.6628125 18.57390625 23.390625 19.3203125 C23.92171875 19.87460938 24.4528125 20.42890625 25 21 C20.83048082 21 19.80585535 19.27042164 16.8125 16.4375 C15.82994951 15.51897209 14.8468727 14.60100688 13.86328125 13.68359375 C12.91839844 12.79800781 11.97351563 11.91242188 11 11 C9.50741167 9.65837492 8.00846197 8.32375234 6.5 7 C5.8915625 6.46375 5.283125 5.9275 4.65625 5.375 C2.83615741 3.81516593 2.83615741 3.81516593 0 2 C0 1.34 0 0.68 0 0 Z " fill="#ACA586" transform="translate(350,208)"/>
<path d="M0 0 C1.52519276 0.08937803 3.04681929 0.24537146 4.5625 0.4375 C5.38878906 0.53933594 6.21507812 0.64117187 7.06640625 0.74609375 C7.70449219 0.82988281 8.34257812 0.91367188 9 1 C7.515 2.485 7.515 2.485 6 4 C6.66 4.66 7.32 5.32 8 6 C6.741875 6.185625 5.48375 6.37125 4.1875 6.5625 C3.12595703 6.71912109 3.12595703 6.71912109 2.04296875 6.87890625 C0 7 0 7 -3 6 C-1.125 1.125 -1.125 1.125 0 0 Z " fill="#EEF0DD" transform="translate(312,197)"/>
<path d="M0 0 C0.99 0.495 0.99 0.495 2 1 C2 6.61 2 12.22 2 18 C3.32 18.66 4.64 19.32 6 20 C7.75 21.625 7.75 21.625 9 23 C6.11374248 22.67930472 4.25821597 22.17588624 1.84375 20.53125 C-0.91846815 16.7390522 -0.43529803 13.31118218 -0.25 8.75 C-0.23195313 7.90953125 -0.21390625 7.0690625 -0.1953125 6.203125 C-0.14830798 4.13492605 -0.07656724 2.06731559 0 0 Z " fill="#CAC0A3" transform="translate(295,350)"/>
<path d="M0 0 C-0.66 0 -1.32 0 -2 0 C-2 0.66 -2 1.32 -2 2 C-2.66 2 -3.32 2 -4 2 C-4 5.63 -4 9.26 -4 13 C-4.99 12.67 -5.98 12.34 -7 12 C-7.66 12.66 -8.32 13.32 -9 14 C-8.33333333 9.33333333 -7.66666667 4.66666667 -7 0 C-3.98968256 -0.93423645 -3.13349732 -1.04449911 0 0 Z " fill="#EEDED0" transform="translate(360,110)"/>
<path d="M0 0 C0.86625 0.5259375 0.86625 0.5259375 1.75 1.0625 C4.39392586 2.16413578 5.36171148 1.96737246 8 1 C8.66 0.67 9.32 0.34 10 0 C10.33 1.32 10.66 2.64 11 4 C10.01 4.33 9.02 4.66 8 5 C7.67 5.99 7.34 6.98 7 8 C7.66 8.33 8.32 8.66 9 9 C9 9.66 9 10.32 9 11 C5.18950597 10.45564371 3.36020622 9.01129759 1 6 C0.25 2.75 0.25 2.75 0 0 Z " fill="#E2DFD0" transform="translate(277,536)"/>
<path d="M0 0 C-0.33 0.66 -0.66 1.32 -1 2 C-2.98 2 -4.96 2 -7 2 C-7.33 2.99 -7.66 3.98 -8 5 C-13.75 6.125 -13.75 6.125 -16 5 C-16.33 5.99 -16.66 6.98 -17 8 C-18.32 7.67 -19.64 7.34 -21 7 C-17.74397004 4.2866417 -14.43846872 2.78564147 -10.5 1.25 C-9.3759375 0.80140625 -8.251875 0.3528125 -7.09375 -0.109375 C-4.08998328 -0.97409572 -2.84198054 -1.14236473 0 0 Z " fill="#E9E4CD" transform="translate(289,229)"/>
<path d="M0 0 C0.33 0 0.66 0 1 0 C1.14285714 7.42857143 1.14285714 7.42857143 0 11 C2.31 11 4.62 11 7 11 C7 11.33 7 11.66 7 12 C9.64 12.33 12.28 12.66 15 13 C15 13.33 15 13.66 15 14 C9.06 14 3.12 14 -3 14 C-3 8 -3 8 -1 6 C-0.60235737 4.01178687 -0.26224651 2.01055661 0 0 Z " fill="#F2D7C8" transform="translate(338,96)"/>
<path d="M0 0 C1.38294718 0.01329757 2.76582404 0.03715018 4.1484375 0.0703125 C4.85484375 0.07933594 5.56125 0.08835937 6.2890625 0.09765625 C8.03399848 0.12123647 9.77876045 0.15710789 11.5234375 0.1953125 C10.8634375 4.8153125 10.2034375 9.4353125 9.5234375 14.1953125 C7.14788589 11.81976089 7.15508892 10.89234256 6.8359375 7.6328125 C6.74957031 6.82714844 6.66320312 6.02148438 6.57421875 5.19140625 C6.55746094 4.53269531 6.54070312 3.87398437 6.5234375 3.1953125 C6.8534375 2.8653125 7.1834375 2.5353125 7.5234375 2.1953125 C3.2334375 2.1953125 -1.0565625 2.1953125 -5.4765625 2.1953125 C-3.4765625 0.1953125 -3.4765625 0.1953125 0 0 Z " fill="#848077" transform="translate(267.4765625,523.8046875)"/>
<path d="M0 0 C0 1.98 0 3.96 0 6 C-0.66 6 -1.32 6 -2 6 C-2.33 7.32 -2.66 8.64 -3 10 C-3 8.68 -3 7.36 -3 6 C-6.3 6 -9.6 6 -13 6 C-11.59719304 3.19438607 -9.9490995 2.99319493 -7.0625 1.875 C-6.16660156 1.52179688 -5.27070313 1.16859375 -4.34765625 0.8046875 C-2 0 -2 0 0 0 Z " fill="#BD7F78" transform="translate(336,98)"/>
<path d="M0 0 C0.99 0.33 1.98 0.66 3 1 C2.34 2.65 1.68 4.3 1 6 C-7.02332397 6.90041311 -14.92970447 7.11547323 -23 7 C-23 6.67 -23 6.34 -23 6 C-21.12054688 5.80083984 -21.12054688 5.80083984 -19.203125 5.59765625 C-17.55206754 5.41941709 -15.90102673 5.2410236 -14.25 5.0625 C-13.0125 4.93198242 -13.0125 4.93198242 -11.75 4.79882812 C-10.95078125 4.71181641 -10.1515625 4.62480469 -9.328125 4.53515625 C-8.5949707 4.456604 -7.86181641 4.37805176 -7.10644531 4.29711914 C-4.00038973 3.86840566 -4.00038973 3.86840566 -1 3 C-0.67 2.01 -0.34 1.02 0 0 Z " fill="#8E8983" transform="translate(309,541)"/>
<path d="M0 0 C2 2 2 2 2.125 5.125 C2.08375 6.07375 2.0425 7.0225 2 8 C2.66 8 3.32 8 4 8 C5.09506492 11.28519475 5.09960608 13.73663415 5.0625 17.1875 C5.05347656 18.27417969 5.04445313 19.36085937 5.03515625 20.48046875 C5.02355469 21.31191406 5.01195312 22.14335937 5 23 C2.17536801 20.17536801 2.03757736 16.98379783 1.375 13.1875 C1.2409375 12.47529297 1.106875 11.76308594 0.96875 11.02929688 C0.29501375 7.3134352 -0.1632621 3.77729125 0 0 Z " fill="#BA736D" transform="translate(285,125)"/>
<path d="M0 0 C2.475 0.495 2.475 0.495 5 1 C5.20017461 5.30375407 4.63351219 8.06035295 3 12 C2.6186926 14.32597511 2.27539746 16.65912158 2 19 C1.67 19 1.34 19 1 19 C0.67 12.73 0.34 6.46 0 0 Z " fill="#D6CDA9" transform="translate(347,392)"/>
<path d="M0 0 C0 0.66 0 1.32 0 2 C1.98 2.66 3.96 3.32 6 4 C5.01 4.66 4.02 5.32 3 6 C0.64315944 5.42190703 -1.69011685 4.74386068 -4 4 C-5.99488234 3.63729412 -7.9937811 3.29359301 -10 3 C-4.375 -1.3125 -4.375 -1.3125 0 0 Z " fill="#F2DCCC" transform="translate(322,194)"/>
<path d="M0 0 C-0.66 0.66 -1.32 1.32 -2 2 C-0.35 2.33 1.3 2.66 3 3 C2.34 4.32 1.68 5.64 1 7 C-2.3 6.01 -5.6 5.02 -9 4 C-9 3.34 -9 2.68 -9 2 C-3.375 -1.125 -3.375 -1.125 0 0 Z " fill="#DDD9D0" transform="translate(329,513)"/>
<path d="M0 0 C1.95720377 2.93580566 2.30195175 3.89822836 2.6328125 7.23046875 C2.71660156 8.03291016 2.80039062 8.83535156 2.88671875 9.66210938 C2.96535156 10.49548828 3.04398437 11.32886719 3.125 12.1875 C3.21136719 13.03248047 3.29773438 13.87746094 3.38671875 14.74804688 C3.5985739 16.83128923 3.80026777 18.91556042 4 21 C3.34 21 2.68 21 2 21 C1.67 17.7 1.34 14.4 1 11 C0.01 11.33 -0.98 11.66 -2 12 C-2 10.68 -2 9.36 -2 8 C-1.34 8 -0.68 8 0 8 C-0.2784375 6.8553125 -0.2784375 6.8553125 -0.5625 5.6875 C-1 3 -1 3 0 0 Z " fill="#C5C2A1" transform="translate(294,429)"/>
<path d="M0 0 C0 0.66 0 1.32 0 2 C-0.66 2 -1.32 2 -2 2 C-2 2.66 -2 3.32 -2 4 C-8.27692308 6.21538462 -8.27692308 6.21538462 -11.9375 5.125 C-12.618125 4.75375 -13.29875 4.3825 -14 4 C-4.81927711 -2.12048193 -4.81927711 -2.12048193 0 0 Z " fill="#D6CEAD" transform="translate(304,231)"/>
<path d="M0 0 C2.93427497 0.97809166 4.8923964 2.5173964 7.0625 4.6875 C7.0625 5.3475 7.0625 6.0075 7.0625 6.6875 C1.64711538 7.91826923 1.64711538 7.91826923 -1.3125 6.75 C-1.84875 6.399375 -2.385 6.04875 -2.9375 5.6875 C-2.2775 5.3575 -1.6175 5.0275 -0.9375 4.6875 C-1.9275 4.3575 -2.9175 4.0275 -3.9375 3.6875 C-3.9375 2.6975 -3.9375 1.7075 -3.9375 0.6875 C-1.9375 -0.3125 -1.9375 -0.3125 0 0 Z " fill="#D9D0AD" transform="translate(317.9375,224.3125)"/>
<path d="M0 0 C3.93127023 6.9375357 4.58117298 16.15416473 4 24 C3.34 24.66 2.68 25.32 2 26 C1.66103732 23.16724047 1.32870306 20.33395339 1 17.5 C0.90460938 16.70851563 0.80921875 15.91703125 0.7109375 15.1015625 C0.12892118 10.02970596 -0.09367085 5.10506141 0 0 Z " fill="#C7C0A3" transform="translate(288,388)"/>
<path d="M0 0 C0.33 0.66 0.66 1.32 1 2 C-0.175625 2.0928125 -0.175625 2.0928125 -1.375 2.1875 C-2.24125 2.455625 -3.1075 2.72375 -4 3 C-5.15521502 5.47130918 -5.15521502 5.47130918 -6 8 C-6.99 8.33 -7.98 8.66 -9 9 C-9 9.99 -9 10.98 -9 12 C-10.32 12.33 -11.64 12.66 -13 13 C-12.67 12.34 -12.34 11.68 -12 11 C-11.34 11 -10.68 11 -10 11 C-10 10.01 -10 9.02 -10 8 C-9.34 8 -8.68 8 -8 8 C-8.66 7.34 -9.32 6.68 -10 6 C-11.32 6 -12.64 6 -14 6 C-13 4 -13 4 -10.8203125 3.18359375 C-9.93085938 2.93738281 -9.04140625 2.69117188 -8.125 2.4375 C-7.24070312 2.18871094 -6.35640625 1.93992188 -5.4453125 1.68359375 C-4.63835937 1.45800781 -3.83140625 1.23242188 -3 1 C-2.01 0.67 -1.02 0.34 0 0 Z " fill="#E1DFC9" transform="translate(265,236)"/>
<path d="M0 0 C-1.44253657 3.36591866 -3.33264727 5.51047079 -6 8 C-4.68 8.33 -3.36 8.66 -2 9 C-2.99 9.33 -3.98 9.66 -5 10 C-3.68 10.66 -2.36 11.32 -1 12 C-2.96466413 13.06775224 -4.96855359 14.06553465 -7 15 C-7.66 14.67 -8.32 14.34 -9 14 C-8.649375 13.443125 -8.29875 12.88625 -7.9375 12.3125 C-6.78154007 9.46113217 -7.19032562 7.91482778 -8 5 C-2.25 0 -2.25 0 0 0 Z " fill="#C6BB97" transform="translate(277,217)"/>
<path d="M0 0 C0 0.66 0 1.32 0 2 C-0.66386719 2.08636719 -1.32773437 2.17273438 -2.01171875 2.26171875 C-7.95710829 3.20777344 -10.98918507 4.23715727 -15 9 C-15.66 9 -16.32 9 -17 9 C-14.44830519 1.34491556 -7.35494041 -0.78802933 0 0 Z " fill="#BBB792" transform="translate(294,208)"/>
<path d="M0 0 C2 2 2 2 2.1953125 4.8203125 C2.16050781 6.45613281 2.16050781 6.45613281 2.125 8.125 C2.10695313 9.22070312 2.08890625 10.31640625 2.0703125 11.4453125 C2.04710937 12.28835938 2.02390625 13.13140625 2 14 C1.01 12.68 0.02 11.36 -1 10 C-1.66 10.99 -2.32 11.98 -3 13 C-3.27429625 7.60550707 -3.36055646 4.48074195 0 0 Z " fill="#67635D" transform="translate(260,482)"/>
<path d="M0 0 C0 1.65 0 3.3 0 5 C0.99 4.67 1.98 4.34 3 4 C3 4.99 3 5.98 3 7 C2.01 7 1.02 7 0 7 C0 7.66 0 8.32 0 9 C-1.32 8.67 -2.64 8.34 -4 8 C-4.75 6.25 -4.75 6.25 -5 4 C-1.66666667 0 -1.66666667 0 0 0 Z " fill="#E9E5D7" transform="translate(284,487)"/>
<path d="M0 0 C0.33 0 0.66 0 1 0 C1 3.63 1 7.26 1 11 C1.33 11 1.66 11 2 11 C1.67 13.97 1.34 16.94 1 20 C-0.97704075 16.0459185 -1.41539374 13.762778 -1.75 9.4375 C-1.84796875 8.30183594 -1.9459375 7.16617187 -2.046875 5.99609375 C-2 3 -2 3 0 0 Z " fill="#EBE8D2" transform="translate(291,384)"/>
<path d="M0 0 C6.76594019 -0.11381955 13.28837062 0.11978631 20 1 C19.67 1.66 19.34 2.32 19 3 C11.41 3 3.82 3 -4 3 C-2.68 2.67 -1.36 2.34 0 2 C0 1.34 0 0.68 0 0 Z " fill="#E6E2C7" transform="translate(309,203)"/>
<path d="M0 0 C2.97 0.495 2.97 0.495 6 1 C2.33845086 3.44103276 -1.44966934 5.00042571 -5.5 6.6875 C-6.27214844 7.02072266 -7.04429687 7.35394531 -7.83984375 7.69726562 C-8.58363281 8.00728516 -9.32742188 8.31730469 -10.09375 8.63671875 C-10.77115234 8.92248779 -11.44855469 9.20825684 -12.14648438 9.50268555 C-14 10 -14 10 -17 9 C-15.10667466 8.18167278 -13.21022267 7.37057732 -11.3125 6.5625 C-9.72888672 5.88380859 -9.72888672 5.88380859 -8.11328125 5.19140625 C-5.38027471 4.14552545 -2.87957663 3.46479252 0 3 C0 2.01 0 1.02 0 0 Z " fill="#ADA786" transform="translate(289,223)"/>
<path d="M0 0 C0.66 0.33 1.32 0.66 2 1 C2.625 3.0625 2.625 3.0625 3 5 C2.01 5 1.02 5 0 5 C0 5.66 0 6.32 0 7 C-0.66 7 -1.32 7 -2 7 C-2.33 7.66 -2.66 8.32 -3 9 C-3.99 8.67 -4.98 8.34 -6 8 C-4.55746343 4.63408134 -2.66735273 2.48952921 0 0 Z " fill="#77716F" transform="translate(260,526)"/>
<path d="M0 0 C0.99 0 1.98 0 3 0 C3 0.66 3 1.32 3 2 C2.34 2 1.68 2 1 2 C0.731875 2.598125 0.46375 3.19625 0.1875 3.8125 C-1.02493496 6.04593283 -1.94652273 7.49938199 -4 9 C-6.1875 8.6875 -6.1875 8.6875 -8 8 C-7.67 6.68 -7.34 5.36 -7 4 C-7 4.66 -7 5.32 -7 6 C-3.18586998 4.8321734 -3.18586998 4.8321734 -0.6875 1.875 C-0.460625 1.25625 -0.23375 0.6375 0 0 Z " fill="#D0C8A3" transform="translate(354,432)"/>
<path d="M0 0 C2.475 0.99 2.475 0.99 5 2 C5.66 1.34 6.32 0.68 7 0 C6.67 1.65 6.34 3.3 6 5 C5.34 5 4.68 5 4 5 C4 5.66 4 6.32 4 7 C4.66 7.33 5.32 7.66 6 8 C5.67 10.64 5.34 13.28 5 16 C4.67 16 4.34 16 4 16 C3.87882812 15.22914063 3.75765625 14.45828125 3.6328125 13.6640625 C3.46523438 12.66117187 3.29765625 11.65828125 3.125 10.625 C2.96257812 9.62726563 2.80015625 8.62953125 2.6328125 7.6015625 C2.2041198 4.8574885 2.2041198 4.8574885 0 3 C0 2.01 0 1.02 0 0 Z " fill="#EAE8CF" transform="translate(280,344)"/>
<path d="M0 0 C-5.14285714 4.42857143 -5.14285714 4.42857143 -9 5 C-9 4.34 -9 3.68 -9 3 C-9.99 2.67 -10.98 2.34 -12 2 C-8.24587786 -1.75412214 -4.98458941 -1.01957511 0 0 Z " fill="#77726F" transform="translate(447,553)"/>
<path d="M0 0 C0.33 0.99 0.66 1.98 1 3 C-3.95 3 -8.9 3 -14 3 C-13 1 -13 1 -9.8125 -0.1875 C-6.03923017 -0.99163947 -3.70527523 -0.90372567 0 0 Z " fill="#D7CEAF" transform="translate(248,253)"/>
<path d="M0 0 C0.33 0.66 0.66 1.32 1 2 C0.51789063 2.61488281 0.03578125 3.22976563 -0.4609375 3.86328125 C-1.09257812 4.67152344 -1.72421875 5.47976563 -2.375 6.3125 C-3.31472656 7.51326172 -3.31472656 7.51326172 -4.2734375 8.73828125 C-5.57756718 10.44663212 -6.80781817 12.21172726 -8 14 C-8.66 14 -9.32 14 -10 14 C-9.71125 13.443125 -9.4225 12.88625 -9.125 12.3125 C-7.94010364 10.02743544 -7.94010364 10.02743544 -7.25 7.5625 C-5.50719383 3.98974735 -3.15071771 2.39728521 0 0 Z " fill="#CCC2A4" transform="translate(368,416)"/>
<path d="M0 0 C2.25 0.875 2.25 0.875 4 2 C3.67 3.32 3.34 4.64 3 6 C4.32 6.66 5.64 7.32 7 8 C6.01 8.33 5.02 8.66 4 9 C1.95703125 7.56640625 1.95703125 7.56640625 -0.1875 5.5625 C-0.90292969 4.90378906 -1.61835938 4.24507812 -2.35546875 3.56640625 C-2.89816406 3.04949219 -3.44085938 2.53257812 -4 2 C-2.140625 0.9453125 -2.140625 0.9453125 0 0 Z " fill="#E8E3CF" transform="translate(376,225)"/>
<path d="M0 0 C0.66 0 1.32 0 2 0 C2 0.66 2 1.32 2 2 C3.423125 2.12375 3.423125 2.12375 4.875 2.25 C9.88977467 2.93991766 14.38454926 5.00337644 19 7 C15.20979251 8.2634025 13.89140971 7.47611172 10.1875 6.125 C6.11617619 4.64920962 2.29279754 3.60317335 -2 3 C-1.34 2.01 -0.68 1.02 0 0 Z " fill="#AFA78A" transform="translate(317,213)"/>
<path d="M0 0 C1.74325447 2.6148817 2.41587957 4.0053433 3.125 6.9375 C3.29257812 7.60652344 3.46015625 8.27554688 3.6328125 8.96484375 C4 11 4 11 4 15 C3.34 15 2.68 15 2 15 C2 13.02 2 11.04 2 9 C1.01 8.67 0.02 8.34 -1 8 C-1.04241723 5.66705225 -1.04092937 3.33297433 -1 1 C-0.67 0.67 -0.34 0.34 0 0 Z " fill="#F3D8CD" transform="translate(292,165)"/>
<path d="M0 0 C1.6415049 3.2830098 0.51888624 6.42545033 0 10 C0.66 10.33 1.32 10.66 2 11 C0.68 11 -0.64 11 -2 11 C-2.33 10.01 -2.66 9.02 -3 8 C-3.99 8 -4.98 8 -6 8 C-4.02 5.36 -2.04 2.72 0 0 Z " fill="#DDD9CB" transform="translate(461,539)"/>
<path d="M0 0 C0.33 0.99 0.66 1.98 1 3 C0.16855469 3.92232422 0.16855469 3.92232422 -0.6796875 4.86328125 C-1.40414063 5.67152344 -2.12859375 6.47976563 -2.875 7.3125 C-3.59429687 8.11300781 -4.31359375 8.91351563 -5.0546875 9.73828125 C-7.11605502 12.04189083 -7.11605502 12.04189083 -9 15 C-9.66 15 -10.32 15 -11 15 C-9.34643078 11.41726669 -7.32019297 8.19026533 -5 5 C-4.34 5 -3.68 5 -3 5 C-2.690625 4.360625 -2.38125 3.72125 -2.0625 3.0625 C-1 1 -1 1 0 0 Z " fill="#CBC2A6" transform="translate(387,393)"/>
<path d="M0 0 C3.63 0.33 7.26 0.66 11 1 C11.33 2.98 11.66 4.96 12 7 C11.01 7 10.02 7 9 7 C9 6.34 9 5.68 9 5 C8.2575 4.731875 7.515 4.46375 6.75 4.1875 C4 3 4 3 0 0 Z " fill="#BB8480" transform="translate(324,196)"/>
<path d="M0 0 C0.99 0.66 1.98 1.32 3 2 C2.67 3.65 2.34 5.3 2 7 C-0.97 7 -3.94 7 -7 7 C-6.34 6.67 -5.68 6.34 -5 6 C-5 5.34 -5 4.68 -5 4 C-4.360625 3.896875 -3.72125 3.79375 -3.0625 3.6875 C-2.381875 3.460625 -1.70125 3.23375 -1 3 C-0.67 2.01 -0.34 1.02 0 0 Z " fill="#E7E4D3" transform="translate(245,559)"/>
<path d="M0 0 C3.66666667 0 7.33333333 0 11 0 C11 0.33 11 0.66 11 1 C9.35 1 7.7 1 6 1 C5.67 2.98 5.34 4.96 5 7 C2.5 5.1875 2.5 5.1875 0 3 C0 2.01 0 1.02 0 0 Z " fill="#76716B" transform="translate(349,473)"/>
<path d="M0 0 C-1.57533086 0.86883706 -3.16064509 1.71959068 -4.75 2.5625 C-5.63171875 3.03816406 -6.5134375 3.51382812 -7.421875 4.00390625 C-10.20701188 5.07998186 -11.26980214 5.06528748 -14 4 C-13.34 4 -12.68 4 -12 4 C-11.814375 3.360625 -11.62875 2.72125 -11.4375 2.0625 C-10 0 -10 0 -6.5625 -0.8125 C-3 -1 -3 -1 0 0 Z " fill="#CDC4A0" transform="translate(366,321)"/>
<path d="M0 0 C3.39393978 1.40438887 5.08345227 2.86383098 7 6 C7.29296875 8.578125 7.29296875 8.578125 7.1875 11.25 C7.16042969 12.14203125 7.13335937 13.0340625 7.10546875 13.953125 C7.07066406 14.62859375 7.03585937 15.3040625 7 16 C6.67 16 6.34 16 6 16 C6 13.03 6 10.06 6 7 C4.68 7.33 3.36 7.66 2 8 C2 6.02 2 4.04 2 2 C1.34 2 0.68 2 0 2 C0 1.34 0 0.68 0 0 Z " fill="#817D75" transform="translate(335,525)"/>
<path d="M0 0 C2.31 0.66 4.62 1.32 7 2 C7 2.66 7 3.32 7 4 C6.01 4.66 5.02 5.32 4 6 C3.67 6.66 3.34 7.32 3 8 C1.35 6.02 -0.3 4.04 -2 2 C-1.34 1.67 -0.68 1.34 0 1 C0 0.67 0 0.34 0 0 Z " fill="#E1DECE" transform="translate(336,520)"/>
<path d="M0 0 C1 2 1 2 0.4375 4.5 C0.293125 5.325 0.14875 6.15 0 7 C0.66 7.66 1.32 8.32 2 9 C2.125 11.625 2.125 11.625 2 14 C1.01 14.33 0.02 14.66 -1 15 C-2.23184766 12.53630468 -2.16732342 10.8105499 -2.1875 8.0625 C-2.20167969 7.18722656 -2.21585938 6.31195313 -2.23046875 5.41015625 C-2 3 -2 3 0 0 Z " fill="#76716B" transform="translate(258,483)"/>
<path d="M0 0 C1.58294782 -0.05437607 3.16644256 -0.09296271 4.75 -0.125 C5.63171875 -0.14820313 6.5134375 -0.17140625 7.421875 -0.1953125 C10.1135858 0.00860498 11.69904974 0.63448279 14 2 C14 2.66 14 3.32 14 4 C10.7 3.67 7.4 3.34 4 3 C4 2.34 4 1.68 4 1 C2.68 0.67 1.36 0.34 0 0 Z " fill="#DBD8CC" transform="translate(290,484)"/>
<path d="M0 0 C0.99 0.33 1.98 0.66 3 1 C0.69 3.64 -1.62 6.28 -4 9 C-6 6 -6 6 -6 4 C-4.36368108 2.95107762 -2.69514137 1.95093297 -1 1 C-0.67 0.67 -0.34 0.34 0 0 Z " fill="#77736A" transform="translate(242,472)"/>
<path d="M0 0 C0 4.20547571 -2.36738124 6.16710361 -5 9.1875 C-5.47695313 9.74630859 -5.95390625 10.30511719 -6.4453125 10.88085938 C-7.62366206 12.25952836 -8.81098952 13.63051472 -10 15 C-10.66 14.67 -11.32 14.34 -12 14 C-8.61090559 9.30651186 -5.2155822 4.97469179 -1 1 C-0.67 0.67 -0.34 0.34 0 0 Z " fill="#EAE4CF" transform="translate(374,412)"/>
<path d="M0 0 C2.66666667 1.33333333 5.33333333 2.66666667 8 4 C8 4.66 8 5.32 8 6 C5.64561267 7.42944945 4.51967567 8.08661261 1.75 7.625 C1.1725 7.41875 0.595 7.2125 0 7 C0.33 6.34 0.66 5.68 1 5 C1.99 5 2.98 5 4 5 C2.35 4.67 0.7 4.34 -1 4 C-0.67 2.68 -0.34 1.36 0 0 Z " fill="#F6F2DF" transform="translate(316,216)"/>
<path d="M0 0 C0.33 0 0.66 0 1 0 C1.55353075 14.78132118 1.55353075 14.78132118 -2 21 C-2.91145054 18.02977779 -3.01801972 15.93514414 -2.44140625 12.890625 C-2.30283203 12.13652344 -2.16425781 11.38242188 -2.02148438 10.60546875 C-1.87001953 9.82816406 -1.71855469 9.05085937 -1.5625 8.25 C-1.41490234 7.45722656 -1.26730469 6.66445312 -1.11523438 5.84765625 C-0.75096034 3.89702754 -0.37647488 1.9483107 0 0 Z " fill="#F5D9CC" transform="translate(342,165)"/>
<path d="M0 0 C5.61 0 11.22 0 17 0 C17 0.33 17 0.66 17 1 C12.71 1 8.42 1 4 1 C4.66 3.64 5.32 6.28 6 9 C3.44971017 7.72485508 3.06918289 6.59658703 2 4 C2 3.01 2 2.02 2 1 C1.34 0.67 0.68 0.34 0 0 Z " fill="#D17C7A" transform="translate(281,111)"/>
<path d="M0 0 C2.31 0.33 4.62 0.66 7 1 C7.33 3.31 7.66 5.62 8 8 C6.85073734 7.04578192 5.70569459 6.08647955 4.5625 5.125 C3.92441406 4.59132813 3.28632813 4.05765625 2.62890625 3.5078125 C1 2 1 2 0 0 Z " fill="#D7CBAF" transform="translate(232,344)"/>
<path d="M0 0 C0.66 0.33 1.32 0.66 2 1 C-1.96 4.96 -5.92 8.92 -10 13 C-10.66 12.67 -11.32 12.34 -12 12 C-11.04882866 10.8274869 -10.08882991 9.66212985 -9.125 8.5 C-8.32449219 7.52546875 -8.32449219 7.52546875 -7.5078125 6.53125 C-7.01023437 6.0259375 -6.51265625 5.520625 -6 5 C-5.34 5 -4.68 5 -4 5 C-4 4.34 -4 3.68 -4 3 C-2 1.375 -2 1.375 0 0 Z " fill="#ABA28A" transform="translate(268,224)"/>
<path d="M0 0 C0.763125 0.20625 1.52625 0.4125 2.3125 0.625 C-0.30646712 3.24396712 -3.1471011 4.6620115 -6.6875 5.625 C-10.625 5.3125 -10.625 5.3125 -13.6875 4.625 C-13.6875 4.295 -13.6875 3.965 -13.6875 3.625 C-11.0475 3.625 -8.4075 3.625 -5.6875 3.625 C-5.6875 2.965 -5.6875 2.305 -5.6875 1.625 C-2.6875 -0.375 -2.6875 -0.375 0 0 Z " fill="#F8DED1" transform="translate(327.6875,99.375)"/>
<path d="M0 0 C0.66 0 1.32 0 2 0 C2 0.66 2 1.32 2 2 C2.66 2 3.32 2 4 2 C4.33 1.34 4.66 0.68 5 0 C6.65 1.98 8.3 3.96 10 6 C9.01 6.33 8.02 6.66 7 7 C6.67 6.34 6.34 5.68 6 5 C5.01 5 4.02 5 3 5 C1.3125 3.625 1.3125 3.625 0 2 C0 1.34 0 0.68 0 0 Z " fill="#757169" transform="translate(229,548)"/>
<path d="M0 0 C0.33 0 0.66 0 1 0 C1.10841951 1.91541138 1.18578079 3.83259773 1.25 5.75 C1.29640625 6.81734375 1.3428125 7.8846875 1.390625 8.984375 C0.91735478 12.63802112 -0.19155042 13.72228105 -3 16 C-3.33 14.35 -3.66 12.7 -4 11 C-2.68 10.34 -1.36 9.68 0 9 C0 6.03 0 3.06 0 0 Z " fill="#D4D0C4" transform="translate(310,528)"/>
<path d="M0 0 C0.99 0 1.98 0 3 0 C3.28875 0.61875 3.5775 1.2375 3.875 1.875 C4.93720042 4.13325765 4.93720042 4.13325765 7 6 C5.35 5.67 3.7 5.34 2 5 C2 8.63 2 12.26 2 16 C1.67 16 1.34 16 1 16 C0.67 10.72 0.34 5.44 0 0 Z " fill="#C5BA98" transform="translate(256,312)"/>
<path d="M0 0 C0.66 0 1.32 0 2 0 C2 0.66 2 1.32 2 2 C1.01 1.67 0.02 1.34 -1 1 C-0.67 0.67 -0.34 0.34 0 0 Z M-1 2 C-1.33 2.99 -1.66 3.98 -2 5 C-4.5625 6.1875 -4.5625 6.1875 -7 7 C-7 6.34 -7 5.68 -7 5 C-7.66 5 -8.32 5 -9 5 C-9 4.34 -9 3.68 -9 3 C-6.07175348 2.02391783 -4.04386724 1.91773332 -1 2 Z " fill="#E1D4AA" transform="translate(321,208)"/>
<path d="M0 0 C1.65 0 3.3 0 5 0 C2.54294083 2.6325634 0.45895144 4.84701619 -3 6 C-6.48883564 5.65962579 -8.02819033 4.98120645 -11 3 C-10.28972656 2.95101562 -9.57945312 2.90203125 -8.84765625 2.8515625 C-7.46900391 2.73941406 -7.46900391 2.73941406 -6.0625 2.625 C-5.14597656 2.55539063 -4.22945313 2.48578125 -3.28515625 2.4140625 C-2.15400391 2.20910156 -2.15400391 2.20910156 -1 2 C-0.67 1.34 -0.34 0.68 0 0 Z " fill="#EDDACC" transform="translate(317,97)"/>
<path d="M0 0 C0.99 0.33 1.98 0.66 3 1 C6 7.22222222 6 7.22222222 6 9 C4.02 9 2.04 9 0 9 C0 6.03 0 3.06 0 0 Z " fill="#68635E" transform="translate(289,512)"/>
<path d="M0 0 C3.15133488 1.83827868 6.11964908 3.75972706 9 6 C8.67 6.99 8.34 7.98 8 9 C5.36 8.01 2.72 7.02 0 6 C1.32 5.67 2.64 5.34 4 5 C3.01 4.319375 3.01 4.319375 2 3.625 C1.34 3.08875 0.68 2.5525 0 2 C0 1.34 0 0.68 0 0 Z " fill="#A19F89" transform="translate(375,230)"/>
<path d="M0 0 C-3.50538557 1.96301592 -7.13351728 2.95902388 -11 4 C-11 3.34 -11 2.68 -11 2 C-10.34 1.67 -9.68 1.34 -9 1 C-9 0.34 -9 -0.32 -9 -1 C-5.79937313 -2.60031344 -3.27728194 -1.03173691 0 0 Z " fill="#E9E7D1" transform="translate(355,228)"/>
<path d="M0 0 C1.2065625 0.0309375 1.2065625 0.0309375 2.4375 0.0625 C2.1075 1.0525 1.7775 2.0425 1.4375 3.0625 C2.7575 4.0525 4.0775 5.0425 5.4375 6.0625 C2.7975 5.7325 0.1575 5.4025 -2.5625 5.0625 C-3.125 3.125 -3.125 3.125 -3.5625 1.0625 C-2.5625 0.0625 -2.5625 0.0625 0 0 Z " fill="#F3EEDB" transform="translate(327.5625,221.9375)"/>
<path d="M0 0 C0 1.65 0 3.3 0 5 C-2.16874252 4.49396008 -3.99967627 4.00016187 -6 3 C-6.33 3.66 -6.66 4.32 -7 5 C-7.66 4.34 -8.32 3.68 -9 3 C-5.55930376 0.70620251 -4.27709699 0 0 0 Z " fill="#E2DED3" transform="translate(335,554)"/>
<path d="M0 0 C0.99 0.33 1.98 0.66 3 1 C3.33 3.64 3.66 6.28 4 9 C2.68 9 1.36 9 0 9 C0 6.03 0 3.06 0 0 Z " fill="#6A6560" transform="translate(274,496)"/>
<path d="M0 0 C-0.66 0.66 -1.32 1.32 -2 2 C-1.01 2.33 -0.02 2.66 1 3 C1 3.66 1 4.32 1 5 C-1.31 5 -3.62 5 -6 5 C-6.33 3.68 -6.66 2.36 -7 1 C-4.53721199 -0.231394 -2.7204945 -0.07159196 0 0 Z " fill="#CEC6A0" transform="translate(253,250)"/>
<path d="M0 0 C4.84688192 0.78175515 9.3766367 2.39844278 14 4 C14 4.33 14 4.66 14 5 C9.22037853 5.19118486 5.39529916 4.98834962 1 3 C0.67 2.01 0.34 1.02 0 0 Z " fill="#D1CBAB" transform="translate(334,230)"/>
<path d="M0 0 C1.65 0.33 3.3 0.66 5 1 C3.71034824 2.37562854 2.37310707 3.70766393 1 5 C0.34 5 -0.32 5 -1 5 C-1 7.64 -1 10.28 -1 13 C-1.33 13 -1.66 13 -2 13 C-2 10.03 -2 7.06 -2 4 C-1.34 4 -0.68 4 0 4 C0 2.68 0 1.36 0 0 Z " fill="#D7CEAE" transform="translate(341,328)"/>
<path d="M0 0 C2.0625 1.75 2.0625 1.75 4 4 C3.75 6.25 3.75 6.25 3 8 C1.02 8 -0.96 8 -3 8 C-2.01 5.36 -1.02 2.72 0 0 Z " fill="#ECE5D0" transform="translate(267,416)"/>
<path d="M0 0 C0.60714844 0.34546875 1.21429688 0.6909375 1.83984375 1.046875 C0.40640375 1.57878041 -1.03210992 2.09702758 -2.47265625 2.609375 C-3.67341797 3.04443359 -3.67341797 3.04443359 -4.8984375 3.48828125 C-7.16015625 4.046875 -7.16015625 4.046875 -10.16015625 3.046875 C-3.3636383 -1.48413697 -3.3636383 -1.48413697 0 0 Z " fill="#E8E3CE" transform="translate(310.16015625,219.953125)"/>
<path d="M0 0 C2.31 0 4.62 0 7 0 C7.33 2.64 7.66 5.28 8 8 C7.34 7.67 6.68 7.34 6 7 C5.855625 6.34 5.71125 5.68 5.5625 5 C5.376875 4.34 5.19125 3.68 5 3 C2.05270463 1.84188612 2.05270463 1.84188612 -1 2 C-0.67 1.34 -0.34 0.68 0 0 Z " fill="#E26F70" transform="translate(326,104)"/>
<path d="M0 0 C2.97 0.99 5.94 1.98 9 3 C9 3.33 9 3.66 9 4 C6.36 3.67 3.72 3.34 1 3 C1 5.64 1 8.28 1 11 C0.67 11 0.34 11 0 11 C0 7.37 0 3.74 0 0 Z " fill="#AC7770" transform="translate(300,98)"/>
<path d="M0 0 C2.32590854 3.63423209 2.16265833 6.77088331 2 11 C1.01 11.495 1.01 11.495 0 12 C-0.19401633 10.18818595 -0.38004375 8.37551468 -0.5625 6.5625 C-0.66691406 5.55316406 -0.77132813 4.54382813 -0.87890625 3.50390625 C-0.91886719 2.67761719 -0.95882813 1.85132813 -1 1 C-0.67 0.67 -0.34 0.34 0 0 Z " fill="#C9C3A4" transform="translate(286,375)"/>
<path d="M0 0 C3.41021743 0.78697325 6.68885166 1.87119943 10 3 C9.01 3.495 9.01 3.495 8 4 C8.33 4.99 8.66 5.98 9 7 C5.18315774 5.44499019 2.80804268 2.96404505 0 0 Z " fill="#D4CCAB" transform="translate(302,373)"/>
<path d="M0 0 C0.66 0.66 1.32 1.32 2 2 C1.7578125 4.8203125 1.7578125 4.8203125 1.125 8.125 C0.92132813 9.22070312 0.71765625 10.31640625 0.5078125 11.4453125 C0.34023438 12.28835938 0.17265625 13.13140625 0 14 C-0.33 14 -0.66 14 -1 14 C-1.66 9.71 -2.32 5.42 -3 1 C-2.01 0.67 -1.02 0.34 0 0 Z " fill="#D1CCAD" transform="translate(396,351)"/>
<path d="M0 0 C1.33333333 0 2.66666667 0 4 0 C4 2.31 4 4.62 4 7 C3.34 6.34 2.68 5.68 2 5 C1.34 5.99 0.68 6.98 0 8 C-1.125 2.25 -1.125 2.25 0 0 Z " fill="#676160" transform="translate(337,534)"/>
<path d="M0 0 C1.32 0.33 2.64 0.66 4 1 C2.02 3.31 0.04 5.62 -2 8 C-2.66 6.68 -3.32 5.36 -4 4 C-2.25 1.9375 -2.25 1.9375 0 0 Z " fill="#E0DBD4" transform="translate(256,526)"/>
<path d="M0 0 C3.11954738 0.33724836 4.6209965 0.6209965 6.875 2.875 C7.24625 3.57625 7.6175 4.2775 8 5 C7.67 5.99 7.34 6.98 7 8 C5.83035398 6.8572081 4.66435444 5.71068285 3.5 4.5625 C2.8503125 3.92441406 2.200625 3.28632813 1.53125 2.62890625 C0 1 0 1 0 0 Z " fill="#76716C" transform="translate(189,483)"/>
<path d="M0 0 C1.16306443 3.54950034 0.92365049 6.55823948 0.5625 10.25 C0.40974609 11.86648438 0.40974609 11.86648438 0.25390625 13.515625 C0.17011719 14.33546875 0.08632813 15.1553125 0 16 C-0.33 16 -0.66 16 -1 16 C-1.22197585 13.89722877 -1.42713637 11.79267698 -1.625 9.6875 C-1.74101562 8.51574219 -1.85703125 7.34398437 -1.9765625 6.13671875 C-2 3 -2 3 0 0 Z " fill="#F7F2E0" transform="translate(341,432)"/>
<path d="M0 0 C0.66 0.66 1.32 1.32 2 2 C1.8125 4.0625 1.8125 4.0625 1 6 C0.01 6.33 -0.98 6.66 -2 7 C-2.66 6.34 -3.32 5.68 -4 5 C-2.68 3.35 -1.36 1.7 0 0 Z " fill="#DFDCCE" transform="translate(245,472)"/>
<path d="M0 0 C0.33 0.99 0.66 1.98 1 3 C1.66 3 2.32 3 3 3 C3 3.99 3 4.98 3 6 C3.66 6 4.32 6 5 6 C5 6.99 5 7.98 5 9 C2.09303901 7.93411431 1.15567038 7.29651501 -0.3125 4.5 C-1 2 -1 2 0 0 Z " fill="#CCC2A5" transform="translate(268,412)"/>
<path d="M0 0 C0.66 0 1.32 0 2 0 C3.125 3.3125 3.125 3.3125 4 7 C3.01 8.485 3.01 8.485 2 10 C-0.09350689 6.5980513 -0.17942163 3.94727588 0 0 Z " fill="#69645E" transform="translate(253,538)"/>
<path d="M0 0 C-0.66 0.66 -1.32 1.32 -2 2 C-1.67 2.66 -1.34 3.32 -1 4 C-4.3 3.67 -7.6 3.34 -11 3 C-11 2.67 -11 2.34 -11 2 C-9.35 2 -7.7 2 -6 2 C-6 1.34 -6 0.68 -6 0 C-3 -1 -3 -1 0 0 Z " fill="#E4E1D1" transform="translate(315,467)"/>
<path d="M0 0 C0 0.66 0 1.32 0 2 C-0.66 2 -1.32 2 -2 2 C-2.33 2.99 -2.66 3.98 -3 5 C-6.0625 6.1875 -6.0625 6.1875 -9 7 C-3.65789474 0 -3.65789474 0 0 0 Z " fill="#CAC4A5" transform="translate(333,374)"/>
<path d="M0 0 C0 1.32 0 2.64 0 4 C-2.97 4 -5.94 4 -9 4 C-3.7826087 0 -3.7826087 0 0 0 Z " fill="#F2E9CD" transform="translate(379,316)"/>
<path d="M0 0 C5.75 0.875 5.75 0.875 8 2 C8 1.34 8 0.68 8 0 C9.32 0.66 10.64 1.32 12 2 C11.34 2 10.68 2 10 2 C9.67 2.66 9.34 3.32 9 4 C6.03 3.01 3.06 2.02 0 1 C0 0.67 0 0.34 0 0 Z " fill="#D7CEB0" transform="translate(392,253)"/>
<path d="M0 0 C1.98 0.66 3.96 1.32 6 2 C5.01 2.33 4.02 2.66 3 3 C3 3.66 3 4.32 3 5 C0.6568787 4.74438677 -1.67843403 4.40729228 -4 4 C-4.33 3.34 -4.66 2.68 -5 2 C-3.35 2 -1.7 2 0 2 C0 1.34 0 0.68 0 0 Z " fill="#E9E7D4" transform="translate(386,232)"/>
<path d="M0 0 C0.66 0 1.32 0 2 0 C2 0.66 2 1.32 2 2 C2.598125 1.649375 3.19625 1.29875 3.8125 0.9375 C6 0 6 0 9 1 C5.55930376 3.29379749 4.27709699 4 0 4 C0 2.68 0 1.36 0 0 Z " fill="#D67474" transform="translate(301,195)"/>
<path d="M0 0 C0.89203125 0.01804688 1.7840625 0.03609375 2.703125 0.0546875 C3.71632813 0.08949219 3.71632813 0.08949219 4.75 0.125 C4.75 0.455 4.75 0.785 4.75 1.125 C1.78 1.125 -1.19 1.125 -4.25 1.125 C-4.25 1.785 -4.25 2.445 -4.25 3.125 C-5.9 3.455 -7.55 3.785 -9.25 4.125 C-9.25 3.465 -9.25 2.805 -9.25 2.125 C-6.03817851 0.21891902 -3.71117397 -0.09766247 0 0 Z " fill="#E1716E" transform="translate(319.25,190.875)"/>
<path d="M0 0 C0 0.66 0 1.32 0 2 C-0.99 2 -1.98 2 -3 2 C-3 2.66 -3 3.32 -3 4 C-5.31 3.67 -7.62 3.34 -10 3 C-7.14414946 0.14414946 -3.95889689 0 0 0 Z " fill="#DAD6CB" transform="translate(322,560)"/>
<path d="M0 0 C0.66 0.33 1.32 0.66 2 1 C1.1875 2.9375 1.1875 2.9375 0 5 C-0.99 5.33 -1.98 5.66 -3 6 C-3 5.34 -3 4.68 -3 4 C-3.66 3.67 -4.32 3.34 -5 3 C-2.625 1.4375 -2.625 1.4375 0 0 Z " fill="#E2DED2" transform="translate(450,551)"/>
<path d="M0 0 C-0.33 1.65 -0.66 3.3 -1 5 C-3.97 4.505 -3.97 4.505 -7 4 C-3.375 0 -3.375 0 0 0 Z " fill="#7C7871" transform="translate(431,538)"/>
<path d="M0 0 C0.33 0 0.66 0 1 0 C1 2.97 1 5.94 1 9 C0.01 9.33 -0.98 9.66 -2 10 C-1.85950482 8.52031676 -1.71245174 7.04125484 -1.5625 5.5625 C-1.48128906 4.73878906 -1.40007812 3.91507813 -1.31640625 3.06640625 C-1 1 -1 1 0 0 Z " fill="#D2CEC5" transform="translate(252,535)"/>
<path d="M0 0 C-0.66 0.66 -1.32 1.32 -2 2 C-7.75 0.375 -7.75 0.375 -10 -3 C-5.69563697 -4.98662909 -3.48674022 -2.61505516 0 0 Z " fill="#77736E" transform="translate(280,476)"/>
<path d="M0 0 C-1.65 1.65 -3.3 3.3 -5 5 C-5.99 4.67 -6.98 4.34 -8 4 C-8 3.01 -8 2.02 -8 1 C-2.25 -1.125 -2.25 -1.125 0 0 Z " fill="#D3CEAD" transform="translate(258,248)"/>
<path d="M0 0 C0.33 0 0.66 0 1 0 C1.25 6.625 1.25 6.625 -1 10 C-2.25 3.375 -2.25 3.375 0 0 Z " fill="#B76F66" transform="translate(338,179)"/>
<path d="M0 0 C4.93928888 -0.3367697 5.78492722 -0.16130459 10 3 C6.7 3 3.4 3 0 3 C0 2.01 0 1.02 0 0 Z " fill="#FAEBE0" transform="translate(282,106)"/>
<path d="M0 0 C1.32 0.66 2.64 1.32 4 2 C4 2.66 4 3.32 4 4 C3.34 4 2.68 4 2 4 C2.33 4.99 2.66 5.98 3 7 C2.01 7 1.02 7 0 7 C-1.125 2.25 -1.125 2.25 0 0 Z " fill="#67615E" transform="translate(235,552)"/>
<path d="M0 0 C1.3921875 0.3403125 1.3921875 0.3403125 2.8125 0.6875 C1.6875 2.25 1.6875 2.25 -0.1875 3.6875 C-3.375 3.375 -3.375 3.375 -6.1875 2.6875 C-4.14987265 -0.14253799 -3.59070275 -0.35202968 0 0 Z " fill="#696362" transform="translate(308.1875,546.3125)"/>
<path d="M0 0 C2.31 0.33 4.62 0.66 7 1 C6.67 1.66 6.34 2.32 6 3 C3.36 3 0.72 3 -2 3 C-1.34 2.01 -0.68 1.02 0 0 Z " fill="#F4F0E4" transform="translate(266,506)"/>
<path d="M0 0 C0.33 0 0.66 0 1 0 C1 1.98 1 3.96 1 6 C1.66 6 2.32 6 3 6 C2.67 6.99 2.34 7.98 2 9 C1.34 9 0.68 9 0 9 C-1.125 2.25 -1.125 2.25 0 0 Z " fill="#D7D0AC" transform="translate(345,434)"/>
<path d="M0 0 C0.33 0.66 0.66 1.32 1 2 C-0.61594832 4.04119788 -2.2856382 6.04072937 -4 8 C-4.66 8 -5.32 8 -6 8 C-4.55746343 4.63408134 -2.66735273 2.48952921 0 0 Z " fill="#CBC3A4" transform="translate(375,408)"/>
<path d="M0 0 C0.66 0 1.32 0 2 0 C2 0.66 2 1.32 2 2 C2.99 2.33 3.98 2.66 5 3 C4.34 3 3.68 3 3 3 C2.67 3.66 2.34 4.32 2 5 C2 4.34 2 3.68 2 3 C0.35 3.66 -1.3 4.32 -3 5 C-1.125 1.125 -1.125 1.125 0 0 Z " fill="#D9D1AC" transform="translate(331,371)"/>
<path d="M0 0 C0.99 0.66 1.98 1.32 3 2 C-0.3 2.66 -3.6 3.32 -7 4 C-7 3.01 -7 2.02 -7 1 C-4.69 1.33 -2.38 1.66 0 2 C0 1.34 0 0.68 0 0 Z " fill="#DBD1A9" transform="translate(264,340)"/>
<path d="M0 0 C1.13643966 3.40931897 0.86747764 4.00335456 -0.4375 7.1875 C-0.86869141 8.26064453 -0.86869141 8.26064453 -1.30859375 9.35546875 C-1.53675781 9.89816406 -1.76492188 10.44085938 -2 11 C-2.33 11 -2.66 11 -3 11 C-3.08096803 9.54257537 -3.13917774 8.08387193 -3.1875 6.625 C-3.22230469 5.81289063 -3.25710938 5.00078125 -3.29296875 4.1640625 C-3.19628906 3.44992187 -3.09960938 2.73578125 -3 2 C-2.01 1.34 -1.02 0.68 0 0 Z " fill="#D8D1AF" transform="translate(382,317)"/>
<path d="M0 0 C0.66 0.33 1.32 0.66 2 1 C-0.65654657 4.73884332 -2.58110387 6.64978174 -7 8 C-5.61918777 3.8575633 -3.40174442 2.67796901 0 0 Z " fill="#AFA78B" transform="translate(284,209)"/>
<path d="M0 0 C3.63 0.33 7.26 0.66 11 1 C10.67 1.66 10.34 2.32 10 3 C6.7 3 3.4 3 0 3 C0 2.01 0 1.02 0 0 Z " fill="#C48580" transform="translate(312,103)"/>
<path d="M0 0 C0.33 1.32 0.66 2.64 1 4 C-2 6 -2 6 -4.1875 5.625 C-4.785625 5.41875 -5.38375 5.2125 -6 5 C-4.02 3.35 -2.04 1.7 0 0 Z " fill="#7B7771" transform="translate(190,548)"/>
<path d="M0 0 C0.99 0.66 1.98 1.32 3 2 C1.35 3.32 -0.3 4.64 -2 6 C-2 5.34 -2 4.68 -2 4 C-2.66 4 -3.32 4 -4 4 C-4 3.34 -4 2.68 -4 2 C-2.68 1.34 -1.36 0.68 0 0 Z " fill="#77726F" transform="translate(232,482)"/>
<path d="M0 0 C1.32 0 2.64 0 4 0 C2.63016497 3.16115776 2.0109362 3.9927092 -1 6 C-0.67 4.02 -0.34 2.04 0 0 Z " fill="#DCCDAA" transform="translate(377,400)"/>
<path d="M0 0 C0.33 0 0.66 0 1 0 C1.33 2.64 1.66 5.28 2 8 C1.34 8 0.68 8 0 8 C0 9.32 0 10.64 0 12 C-0.66 12 -1.32 12 -2 12 C-1.34 8.04 -0.68 4.08 0 0 Z " fill="#F2D6CA" transform="translate(338,186)"/>
<path d="M0 0 C0.33 1.32 0.66 2.64 1 4 C0.01 4.495 0.01 4.495 -1 5 C-0.34 5.33 0.32 5.66 1 6 C0.67 6.66 0.34 7.32 0 8 C-0.99 7.67 -1.98 7.34 -3 7 C-3.33 6.01 -3.66 5.02 -4 4 C-2.68 2.68 -1.36 1.36 0 0 Z " fill="#87837A" transform="translate(308,504)"/>
<path d="M0 0 C1.98 0.99 1.98 0.99 4 2 C3.67 3.98 3.34 5.96 3 8 C2.67 7.34 2.34 6.68 2 6 C1.34 5.67 0.68 5.34 0 5 C0.66 5 1.32 5 2 5 C2 4.01 2 3.02 2 2 C1.34 2 0.68 2 0 2 C0 1.34 0 0.68 0 0 Z " fill="#D6CFAE" transform="translate(264,408)"/>
<path d="M0 0 C0.33 0 0.66 0 1 0 C1.33 2.97 1.66 5.94 2 9 C0.35 9.33 -1.3 9.66 -3 10 C-2.67 9.01 -2.34 8.02 -2 7 C-1.34 7 -0.68 7 0 7 C0 4.69 0 2.38 0 0 Z " fill="#D7CFAE" transform="translate(339,360)"/>
<path d="M0 0 C-6.75 4 -6.75 4 -9 4 C-9 3.01 -9 2.02 -9 1 C-5.57367167 -0.61798838 -3.61944899 -1.34053666 0 0 Z " fill="#CAC3A3" transform="translate(361,347)"/>
<path d="M0 0 C0.99 0.33 1.98 0.66 3 1 C4.66362417 1.34820041 6.32995171 1.68404492 8 2 C8 2.99 8 3.98 8 5 C5.36 4.34 2.72 3.68 0 3 C0 2.01 0 1.02 0 0 Z " fill="#E9E4CB" transform="translate(377,243)"/>
<path d="M0 0 C2.475 0.495 2.475 0.495 5 1 C4.67 2.65 4.34 4.3 4 6 C3.01 6 2.02 6 1 6 C1.33 4.68 1.66 3.36 2 2 C1.34 2 0.68 2 0 2 C0 1.34 0 0.68 0 0 Z " fill="#F6F2E2" transform="translate(378,225)"/>
<path d="M0 0 C0.99 0 1.98 0 3 0 C2.67 1.98 2.34 3.96 2 6 C0.68 4.68 -0.64 3.36 -2 2 C-1.34 2 -0.68 2 0 2 C0 1.34 0 0.68 0 0 Z " fill="#EBE7D3" transform="translate(360,211)"/>
</svg>
